
<svg version="1.0" xmlns="http://www.w3.org/2000/svg"
 width="2048.000000pt" height="2048.000000pt" viewBox="0 0 2048.000000 2048.000000"
 preserveAspectRatio="xMidYMid meet">

<g transform="translate(0.000000,2048.000000) scale(0.100000,-0.100000)"
fill="#000000" stroke="none">
<path d="M0 10240 l0 -10240 10240 0 10240 0 0 10240 0 10240 -10240 0 -10240
0 0 -10240z m18140 8587 c109 -27 226 -76 325 -138 148 -92 361 -320 390 -416
7 -27 -19 -33 -29 -8 -3 8 -9 15 -13 14 -23 -4 -35 6 -81 64 -168 212 -369
348 -587 396 -27 6 -95 16 -150 21 -133 13 -15143 13 -15391 0 -215 -11 -316
-32 -453 -96 -218 -102 -398 -277 -498 -485 -48 -99 -71 -181 -83 -304 -6 -54
-10 -3131 -10 -7748 0 -6831 1 -7665 15 -7731 9 -41 24 -100 35 -132 24 -68
24 -65 5 -58 -12 5 -10 -4 6 -41 11 -26 18 -50 14 -53 -8 -9 -48 40 -72 88
-10 19 -21 37 -24 40 -14 11 -58 160 -70 235 -10 63 -13 1641 -14 7630 -1
4652 2 7608 8 7700 15 239 79 418 209 582 210 267 478 419 798 452 48 5 3443
8 7840 7 7432 -1 7758 -2 7830 -19z m147 -3 c-5 -5 -57 13 -57 20 0 3 14 0 31
-6 16 -6 28 -12 26 -14z m111 -49 c4 -4 -11 0 -33 9 -22 10 -44 22 -50 27 -5
6 9 2 33 -9 23 -10 46 -22 50 -27z m-16333 -15 c-3 -5 -12 -10 -18 -10 -7 0
-6 4 3 10 19 12 23 12 15 0z m-55 -30 c0 -5 -5 -10 -11 -10 -5 0 -7 5 -4 10 3
6 8 10 11 10 2 0 4 -4 4 -10z m-30 -20 c0 -5 -5 -10 -11 -10 -5 0 -7 5 -4 10
3 6 8 10 11 10 2 0 4 -4 4 -10z m16540 -10 c0 -5 -2 -10 -4 -10 -3 0 -8 5 -11
10 -3 6 -1 10 4 10 6 0 11 -4 11 -10z m96 -72 l29 -31 -32 22 c-18 12 -33 27
-33 32 0 14 4 11 36 -23z m-16836 -82 c0 -2 -7 -7 -16 -10 -8 -3 -12 -2 -9 4
6 10 25 14 25 6z m-40 -30 c0 -2 -7 -9 -15 -16 -13 -11 -14 -10 -9 4 5 14 24
23 24 12z m-45 -56 c-3 -5 -11 -10 -16 -10 -6 0 -7 5 -4 10 3 6 11 10 16 10 6
0 7 -4 4 -10z m10724 -250 c24 -6 59 -26 79 -45 l37 -34 0 -84 c-1 -76 -3 -88
-28 -120 -21 -28 -38 -38 -79 -47 -39 -8 -564 -10 -1928 -8 -1852 3 -1875 3
-1914 23 -58 30 -79 64 -84 138 -4 70 15 117 62 152 25 18 47 21 214 25 103 3
955 6 1893 8 1254 3 1717 1 1748 -8z m3014 -4 c76 -35 113 -98 102 -175 -9
-70 -34 -109 -85 -134 l-45 -22 -1235 0 c-1367 0 -1277 -4 -1313 65 -26 50
-19 165 12 209 30 41 55 54 121 62 30 3 585 7 1233 8 1008 1 1182 -1 1210 -13z
m1794 -8 c83 -36 143 -117 143 -194 0 -97 -96 -205 -195 -220 -91 -13 -193 32
-240 106 -20 31 -25 53 -25 100 0 90 44 162 125 204 36 19 152 21 192 4z m742
-18 c50 -27 63 -39 94 -85 23 -33 27 -51 27 -106 0 -59 -4 -73 -32 -115 -77
-113 -247 -126 -350 -26 -62 59 -79 115 -61 203 9 46 96 133 148 147 52 14
128 6 174 -18z m-15409 -18 c92 -56 132 -174 91 -267 -69 -156 -268 -188 -379
-61 -38 44 -56 106 -48 169 7 60 29 101 77 139 80 64 174 71 259 20z m1109 10
c85 -52 122 -111 122 -196 1 -102 -51 -179 -140 -211 -110 -38 -218 5 -270
110 -20 40 -23 58 -19 120 4 52 11 81 26 102 27 38 92 83 134 94 43 10 115 1
147 -19z m1178 2 c44 -20 111 -99 124 -148 29 -107 -39 -227 -150 -264 -99
-34 -221 19 -271 119 -23 44 -27 146 -7 182 63 114 192 161 304 111z m-1726
-13 c25 -15 60 -50 77 -76 27 -41 32 -58 32 -110 0 -50 -5 -69 -28 -106 -36
-54 -57 -74 -105 -94 -80 -33 -162 -17 -231 46 -120 109 -96 276 49 352 18 10
56 16 96 17 55 0 72 -4 110 -29z m1120 15 c50 -21 86 -52 113 -99 36 -61 41
-106 21 -167 -39 -119 -161 -184 -272 -146 -57 20 -91 47 -127 100 -33 50 -37
146 -7 204 52 101 173 149 272 108z m14081 -964 c155 -40 277 -121 380 -251
72 -89 111 -165 140 -268 l21 -78 1 -7030 c1 -5774 -1 -7041 -12 -7090 -30
-138 -59 -207 -129 -316 -117 -180 -267 -292 -470 -352 l-78 -22 -7925 0
c-6651 0 -7935 2 -7990 14 -352 73 -560 245 -631 519 -20 76 -20 131 -21 7182
0 5400 3 7116 12 7150 24 93 32 117 62 177 95 194 296 338 522 375 11 2 3631
3 8045 3 6372 0 8036 -3 8073 -13z m-16905 -3914 c-2 -13 -4 -3 -4 22 0 25 2
35 4 23 2 -13 2 -33 0 -45z"/>
<path d="M2590 16760 c-114 -19 -196 -64 -286 -154 -96 -96 -153 -201 -183
-337 -7 -32 -11 -2193 -11 -6727 l-1 -6681 25 -71 c72 -209 235 -359 412 -380
53 -6 1901 -7 2012 -1 17 1 22 7 22 29 l0 27 -1042 0 -1043 0 -58 27 c-118 55
-237 209 -267 343 -14 60 -14 13356 0 13420 24 113 31 130 88 218 54 83 133
154 220 198 l66 34 7635 3 c5648 2 7652 0 7696 -8 94 -18 189 -73 275 -159 85
-86 129 -161 160 -273 l21 -77 2 -2313 c2 -2181 3 -2315 19 -2347 10 -19 19
-48 19 -65 1 -18 5 -5 10 29 13 89 12 4648 -1 4714 -50 262 -200 445 -437 528
l-78 28 -7615 1 c-4188 1 -7635 -2 -7660 -6z"/>
<path d="M8582 16271 c18 -16 35 -27 38 -24 6 5 -50 53 -63 53 -4 0 7 -13 25
-29z"/>
<path d="M8650 16215 c13 -14 26 -25 28 -25 3 0 -5 11 -18 25 -13 14 -26 25
-28 25 -3 0 5 -11 18 -25z"/>
<path d="M2755 16193 c-47 -25 -66 -45 -86 -91 -23 -52 -24 -117 -5 -164 17
-40 61 -87 94 -99 13 -5 428 -9 926 -9 l902 0 44 23 c26 12 57 40 74 64 24 35
29 52 28 100 -1 93 -38 157 -105 182 -19 8 -316 11 -935 11 -808 -1 -910 -3
-937 -17z"/>
<path d="M15932 16178 c-44 -15 -108 -87 -123 -140 -20 -67 -17 -174 6 -238
28 -77 110 -160 190 -191 57 -23 70 -24 285 -23 149 1 235 5 255 13 22 9 172
12 573 11 541 -1 606 3 638 34 14 14 34 162 34 251 0 104 -35 199 -92 252 -13
12 -48 26 -82 32 -81 15 -1637 13 -1684 -1z m590 -170 c24 -19 31 -53 14 -67
-23 -19 -106 -4 -106 20 0 27 -17 32 -24 6 -10 -38 -7 -47 19 -47 20 0 25 -5
25 -24 0 -72 -67 -142 -84 -88 -5 15 -25 145 -26 164 0 3 26 14 58 23 31 10
62 19 67 20 22 7 42 4 57 -7z m817 -15 c13 -25 25 -184 16 -222 -6 -26 -11
-31 -36 -31 l-29 0 0 119 c0 66 3 126 6 135 8 21 31 20 43 -1z m-437 -91 c3
-53 10 -108 17 -120 7 -13 11 -25 9 -27 -2 -2 -28 -5 -58 -6 -45 -3 -54 -1
-50 11 2 8 6 63 8 122 3 90 6 107 20 111 49 13 49 12 54 -91z m329 17 c4 -41
8 -96 10 -124 l4 -50 -37 -3 -36 -3 -1 125 c-1 111 1 125 16 129 33 8 38 1 44
-74z m-620 30 c11 -34 10 -48 -2 -82 -22 -66 -44 -55 -45 23 -2 100 25 134 47
59z m159 -8 c0 -27 3 -63 6 -81 7 -32 7 -32 -25 -25 -39 8 -35 -12 9 -37 19
-11 30 -25 30 -39 0 -20 -3 -21 -55 -16 -66 7 -80 14 -65 32 7 8 10 22 7 32
-4 16 -5 16 -11 -2 -15 -42 -24 -51 -67 -72 -58 -29 -63 -29 -55 9 9 44 35 72
53 57 7 -7 15 -10 17 -8 11 13 36 71 36 85 0 12 6 15 23 10 28 -7 69 3 61 15
-2 5 -18 6 -34 2 -36 -7 -48 14 -29 49 16 31 28 38 67 38 32 0 32 0 32 -49z
m258 40 c11 -7 11 -14 -3 -42 -29 -55 -5 -204 26 -159 6 9 8 52 5 108 l-5 92
28 0 c18 0 31 -6 36 -17 12 -32 17 -187 6 -203 -7 -10 -28 -15 -68 -15 -98 0
-97 -1 -90 120 3 58 9 110 12 115 8 12 35 13 53 1z m463 -3 c4 -58 0 -229 -6
-237 -3 -6 -17 -11 -31 -11 -23 0 -24 3 -24 63 0 34 -3 92 -7 130 l-6 67 37 0
c22 0 36 -5 37 -12z m-977 -84 c4 -10 1 -14 -6 -12 -15 5 -23 28 -10 28 5 0
13 -7 16 -16z"/>
<path d="M16388 15860 c-7 -24 -3 -38 8 -28 3 4 4 17 2 30 l-3 23 -7 -25z"/>
<path d="M5404 16082 c-6 -4 -8 -74 -6 -169 4 -147 6 -163 22 -163 14 0 18 12
24 61 18 173 -1 298 -40 271z"/>
<path d="M5700 16080 c-7 -4 -10 -13 -6 -19 4 -6 2 -29 -4 -51 -6 -22 -11 -86
-11 -141 -1 -86 -3 -100 -17 -97 -25 5 -33 55 -29 181 l4 117 -41 0 -41 -1 26
-23 c19 -16 24 -28 18 -37 -5 -8 -13 -39 -19 -69 -6 -30 -14 -62 -17 -70 -8
-19 -21 58 -22 128 -1 37 -5 52 -15 52 -20 0 -23 -26 -15 -110 4 -41 8 -101 8
-132 1 -51 3 -58 21 -58 17 0 18 5 13 51 l-6 51 29 -4 c22 -2 30 -9 32 -27 7
-49 31 -71 76 -71 22 0 48 5 56 10 11 7 12 10 2 10 -9 0 -12 10 -10 28 2 22
-1 28 -19 30 -26 4 -27 6 -13 31 9 18 20 84 25 151 1 19 5 42 9 51 8 19 -14
31 -34 19z"/>
<path d="M6107 16073 c-3 -10 -6 -38 -6 -62 -1 -25 -6 -48 -12 -52 -7 -4 -6
-20 5 -52 8 -25 18 -75 22 -111 5 -47 11 -66 21 -66 12 0 13 26 8 168 -4 92
-8 173 -10 180 -6 18 -23 15 -28 -5z"/>
<path d="M5808 15946 c-3 -87 -1 -133 6 -138 8 -5 7 -14 -1 -28 -17 -27 -16
-30 7 -30 22 0 23 10 22 142 0 37 4 70 9 74 6 4 4 13 -7 25 -31 35 6 71 52 51
30 -14 31 -47 2 -57 -22 -7 -22 -8 -2 -12 18 -3 21 -12 22 -71 2 -71 16 -102
27 -60 4 14 3 72 -2 129 l-8 104 -61 1 -62 0 -4 -130z"/>
<path d="M5988 15913 c-2 -87 -4 -159 -4 -160 1 0 9 -3 19 -5 17 -3 18 10 23
160 4 154 3 162 -15 162 -18 0 -19 -11 -23 -157z"/>
<path d="M5878 15853 c-22 -6 -23 -17 -2 -34 13 -10 17 -10 25 2 11 17 12 39
2 38 -5 -1 -16 -3 -25 -6z"/>
<path d="M5930 15793 c0 -6 -11 -14 -25 -17 -30 -8 -34 -36 -5 -36 20 0 47 46
35 58 -3 3 -5 1 -5 -5z"/>
<path d="M9230 15675 c25 -28 68 -69 95 -93 28 -23 88 -78 134 -122 77 -74
102 -92 100 -72 0 4 -24 27 -52 51 -29 24 -72 62 -97 85 -25 23 -85 77 -135
121 -70 62 -80 69 -45 30z"/>
<path d="M2710 15480 c-21 -21 -23 -32 -14 -67 l6 -23 805 0 c535 0 811 3 824
10 24 13 24 38 -1 70 l-19 25 -790 3 c-782 2 -791 2 -811 -18z"/>
<path d="M9559 15353 c-19 -35 -136 -144 -418 -387 -307 -265 -433 -376 -543
-482 -48 -46 -90 -84 -93 -84 -3 0 -26 19 -50 41 -25 23 -48 40 -51 37 -6 -6
8 -21 57 -63 l34 -28 3 -228 c3 -225 3 -229 -17 -229 -12 0 -21 6 -21 14 0 7
-8 16 -17 20 -10 3 -24 9 -32 12 -7 4 7 -14 32 -40 49 -49 66 -84 48 -96 -7
-3 -10 -13 -8 -21 2 -8 2 -11 0 -6 -3 4 -9 5 -14 2 -5 -4 -3 -12 4 -19 6 -8
15 -12 20 -9 4 2 7 -15 7 -39 0 -28 -3 -38 -9 -29 -7 11 -10 11 -15 0 -3 -8
-3 -4 0 9 4 17 1 22 -13 22 -12 0 -14 3 -6 8 8 5 1 12 -19 21 -35 16 -77 59
-78 79 0 20 -27 14 -33 -8 -3 -12 0 -20 7 -20 7 0 22 -13 34 -30 13 -16 30
-30 39 -30 9 0 13 -3 10 -6 -3 -4 0 -16 8 -28 35 -49 -3 -67 -50 -24 -16 15
-33 28 -36 28 -4 0 -10 7 -13 16 -6 15 -3 14 21 -1 16 -10 33 -26 40 -34 6 -9
15 -13 19 -9 4 4 -17 30 -46 58 -43 41 -55 48 -71 39 -24 -13 -24 -14 9 -49
44 -46 82 -98 82 -112 0 -14 -21 -8 -47 12 -14 11 -35 20 -46 20 -18 0 -17 -2
7 -27 28 -28 51 -63 41 -63 -10 0 -68 56 -84 81 -15 24 -18 25 -31 11 -13 -14
-12 -15 3 -9 12 5 17 1 17 -13 0 -11 14 -32 30 -47 18 -16 30 -36 30 -51 0
-21 -2 -22 -15 -12 -8 7 -15 19 -15 26 0 8 -6 11 -15 8 -8 -4 -15 -2 -15 3 0
12 -71 93 -82 93 -18 0 -7 -30 22 -58 17 -17 30 -40 30 -51 0 -11 9 -25 20
-31 11 -6 18 -15 15 -21 -11 -16 -25 -10 -37 17 -7 15 -23 27 -40 31 -30 6
-36 18 -15 27 8 4 7 5 -3 5 -34 -3 -47 2 -80 31 -19 16 -42 30 -50 29 -10 0
-6 -6 10 -17 14 -9 49 -40 78 -69 28 -28 55 -53 60 -55 8 -4 65 -77 76 -98 4
-9 2 -8 -7 3 -8 9 -18 17 -23 17 -5 0 -20 14 -34 30 -28 34 -37 37 -42 15 -2
-11 -11 -8 -35 15 -18 17 -34 30 -38 30 -3 0 -26 20 -52 45 -25 25 -50 45 -54
45 -5 0 -9 6 -9 14 0 9 -9 14 -20 13 -11 -1 -20 -2 -20 -4 0 -5 177 -176 240
-232 33 -29 59 -56 56 -58 -7 -8 -31 9 -80 55 -25 23 -48 42 -51 42 -9 -2 -75
58 -75 67 0 4 -19 19 -42 33 -22 14 -47 31 -55 39 -8 7 -17 10 -21 6 -4 -4 -1
-10 6 -12 6 -3 12 -14 12 -26 0 -12 9 -28 20 -35 24 -14 24 -21 5 -46 -13 -17
-16 -18 -38 -3 -13 9 -43 35 -65 59 -22 23 -44 40 -47 36 -4 -4 3 -15 15 -25
12 -10 30 -35 41 -55 10 -21 29 -46 41 -58 l22 -20 -27 0 c-15 0 -35 9 -44 20
-10 11 -20 20 -24 20 -15 0 -19 -34 -6 -49 31 -36 29 -44 -5 -16 -20 17 -35
36 -32 43 2 7 -1 10 -6 7 -5 -3 -22 9 -37 26 -15 18 -33 37 -40 44 -7 7 -9 16
-5 20 4 5 2 6 -3 2 -6 -3 -75 59 -153 138 l-143 143 2 398 c4 604 -1 994 -11
994 -6 0 -9 -272 -9 -701 l2 -701 142 -147 c78 -80 170 -180 205 -221 35 -41
238 -250 452 -464 l388 -388 572 570 573 571 6 163 c3 90 5 424 3 743 -2 637
0 620 -64 700 -44 55 -54 59 -71 28z m-1239 -1563 c0 -5 -5 -10 -11 -10 -5 0
-7 5 -4 10 3 6 8 10 11 10 2 0 4 -4 4 -10z m155 -125 c25 -24 33 -55 16 -55
-13 0 -61 62 -55 72 8 12 13 10 39 -17z m-37 -71 c1 -1 -5 -7 -15 -15 -15 -12
-16 -12 -10 5 6 14 4 17 -8 12 -10 -4 -15 1 -15 16 0 21 0 21 23 2 12 -10 23
-19 25 -20z m59 -96 c-3 -8 -6 -5 -6 6 -1 11 2 17 5 13 3 -3 4 -12 1 -19z
m-227 -4 c0 -8 -4 -12 -10 -9 -5 3 -10 10 -10 16 0 5 5 9 10 9 6 0 10 -7 10
-16z m-290 -19 c10 -12 10 -15 -4 -15 -9 0 -16 7 -16 15 0 8 2 15 4 15 2 0 9
-7 16 -15z m35 -25 c3 -5 1 -10 -4 -10 -6 0 -11 5 -11 10 0 6 2 10 4 10 3 0 8
-4 11 -10z m-50 -16 c18 -8 35 -24 38 -35 5 -18 3 -18 -11 -7 -79 60 -85 70
-27 42z m90 -74 c3 -5 -1 -10 -9 -10 -8 0 -18 5 -21 10 -3 6 1 10 9 10 8 0 18
-4 21 -10z m-90 -20 c3 -5 -1 -10 -9 -10 -9 0 -16 5 -16 10 0 6 4 10 9 10 6 0
13 -4 16 -10z m150 -21 c11 -17 -1 -21 -15 -4 -8 9 -8 15 -2 15 6 0 14 -5 17
-11z m-60 -59 c3 -5 -3 -10 -14 -10 -12 0 -21 5 -21 10 0 6 6 10 14 10 8 0 18
-4 21 -10z m26 -47 c-12 -20 -14 -14 -5 12 4 9 9 14 11 11 3 -2 0 -13 -6 -23z
m-63 -72 c-5 -2 -16 6 -24 17 -8 12 -21 28 -29 36 -8 8 -15 18 -15 22 0 4 17
-11 39 -32 21 -21 34 -41 29 -43z m146 -129 c3 -7 -8 -2 -24 10 -17 12 -30 26
-30 30 0 12 48 -23 54 -40z m157 -159 c13 -16 12 -17 -3 -4 -17 13 -22 21 -14
21 2 0 10 -8 17 -17z m134 -123 c10 -11 16 -20 13 -20 -3 0 -13 9 -23 20 -10
11 -16 20 -13 20 3 0 13 -9 23 -20z"/>
<path d="M12860 15311 c-14 -35 -51 -69 -132 -121 -114 -74 -319 -139 -581
-185 l-39 -6 5 -101 c3 -78 8 -104 20 -113 19 -14 12 -25 -15 -25 -14 0 -17
-5 -13 -22 3 -13 9 -41 14 -64 l8 -41 -99 -7 c-55 -3 -108 -11 -117 -17 -11
-7 15 -8 86 -3 102 6 103 6 112 -17 4 -13 6 -29 4 -35 -2 -7 0 -14 5 -17 4 -4
6 -25 3 -49 -6 -40 -8 -43 -41 -48 -40 -6 -32 -14 23 -24 31 -6 36 -10 28 -24
-5 -10 -7 -29 -4 -43 4 -22 0 -28 -24 -37 -17 -6 -21 -11 -10 -11 9 -1 17 -6
17 -12 0 -5 -8 -9 -17 -8 -27 3 -93 -12 -93 -22 0 -4 -17 -10 -37 -12 -21 -2
-7 -3 30 -2 38 2 71 5 74 9 3 3 17 -1 32 -8 22 -12 26 -20 25 -52 l-1 -39 -52
-3 c-60 -4 -70 -22 -11 -22 36 0 40 -2 40 -25 0 -14 -6 -25 -12 -25 -9 0 -8
-3 2 -10 18 -11 19 -115 1 -133 -15 -15 -14 -27 3 -27 17 0 23 -25 16 -69 -4
-29 -10 -35 -35 -38 -16 -2 -48 -11 -70 -19 l-40 -14 69 2 c81 2 86 -4 77 -92
-7 -63 18 -54 -191 -69 l-115 -8 159 -2 158 -1 -6 -22 c-3 -13 -6 -39 -6 -59
0 -34 -2 -36 -32 -36 -79 2 -143 -4 -123 -13 18 -7 17 -8 -10 -13 -16 -2 16
-2 73 1 l103 5 -2 -79 c-4 -92 -12 -103 -79 -104 -25 -1 -54 -5 -65 -10 -18
-8 -18 -9 5 -10 14 -1 57 -1 95 0 l70 2 -22 -22 c-13 -11 -23 -31 -23 -44 0
-22 -7 -25 -97 -41 -54 -9 -105 -18 -113 -20 -17 -4 62 1 158 11 55 6 62 4 56
-10 -4 -12 -19 -16 -55 -16 -27 0 -49 -4 -49 -9 0 -6 -19 -14 -42 -20 -36 -9
-30 -9 37 -4 98 7 126 6 139 -7 7 -7 4 -12 -12 -16 -14 -4 -22 -14 -22 -29 0
-26 -28 -34 -119 -36 -31 -1 -67 -5 -81 -9 -19 -6 -12 -9 35 -11 33 -1 81 -2
106 -2 41 1 46 -1 42 -18 -4 -15 -15 -19 -49 -19 -23 0 -46 -5 -49 -11 -5 -7
11 -10 51 -8 78 4 82 -16 7 -31 -32 -7 -69 -15 -83 -19 -14 -4 -70 -9 -125
-10 -55 -1 -102 -5 -105 -8 -10 -11 342 5 353 16 17 17 30 13 23 -6 -4 -9 -1
-20 6 -24 17 -11 -8 -39 -34 -39 -14 0 -18 -5 -14 -15 3 -8 2 -15 -2 -16 -4 0
-16 -2 -27 -5 -49 -9 -183 -24 -222 -24 -24 0 -43 -4 -43 -10 0 -5 -33 -11
-72 -13 -40 -2 40 -4 177 -3 264 1 325 -10 170 -30 -47 -7 -89 -15 -92 -18 -4
-3 26 -6 65 -6 39 0 73 -4 77 -9 9 -16 22 -14 -389 -56 -156 -16 -195 -25
-109 -25 28 0 72 -3 99 -7 l49 -7 -35 -7 c-26 -5 -17 -7 37 -8 43 0 75 3 79
10 5 8 9 8 14 -1 5 -8 46 -12 124 -13 64 -1 116 -5 116 -9 0 -13 38 -9 43 5 3
8 9 6 20 -7 14 -19 19 -19 133 -7 137 15 271 42 364 73 132 43 283 139 306
193 9 22 13 110 14 325 4 689 -1 1626 -10 1760 -6 80 -13 204 -17 275 -6 131
-22 195 -47 195 -7 0 -19 -13 -26 -29z m-737 -2538 c-7 -2 -21 -2 -30 0 -10 3
-4 5 12 5 17 0 24 -2 18 -5z"/>
<path d="M15520 15276 c15 -41 7 -58 -63 -118 -76 -67 -158 -115 -263 -156
-82 -31 -258 -72 -312 -72 -54 0 -63 -8 -56 -52 8 -46 -2 -57 -56 -59 l-35 -2
40 -6 c38 -6 40 -8 40 -41 0 -19 4 -41 8 -47 16 -25 -3 -29 -122 -28 -67 1
-120 0 -118 -1 6 -7 69 -12 145 -13 l84 -1 -3 -38 c-2 -21 0 -43 5 -50 14 -23
-6 -32 -77 -33 -80 -1 -59 -16 26 -18 26 -1 47 -5 47 -10 0 -26 -15 -41 -40
-41 -16 0 -32 -5 -36 -12 -5 -8 4 -9 35 -4 41 6 42 6 39 -20 -3 -26 -5 -27
-79 -30 -121 -6 -143 -23 -25 -20 105 2 122 -6 97 -46 -6 -10 -9 -23 -6 -27 3
-5 -3 -7 -12 -5 -10 3 -36 1 -58 -5 -40 -9 -39 -9 21 -10 59 -1 62 -2 62 -26
0 -21 -5 -25 -28 -25 -15 0 -42 -3 -61 -7 -28 -5 -30 -7 -14 -14 11 -4 34 -8
51 -8 29 -1 54 -16 54 -34 0 -4 -4 -5 -10 -2 -9 6 -14 -8 -11 -27 0 -5 -14 -8
-32 -7 -29 1 -30 2 -7 8 14 4 20 9 15 12 -17 9 -202 11 -208 2 -3 -4 32 -10
76 -11 48 -2 85 -9 89 -15 5 -8 -3 -13 -22 -15 -57 -6 -29 -22 38 -22 l69 0 0
-32 c0 -56 -24 -68 -131 -68 -66 0 -96 -4 -99 -12 -4 -9 -8 -9 -14 -3 -4 6
-65 11 -137 11 -90 2 -124 -1 -112 -8 9 -5 55 -10 102 -9 46 0 84 -4 84 -9 0
-5 66 -11 147 -12 131 -3 148 -5 151 -20 3 -16 -5 -18 -54 -18 -32 0 -54 -3
-50 -7 8 -8 14 -9 84 -12 30 -1 42 -5 42 -16 0 -9 -10 -15 -22 -16 -13 0 -69
-3 -126 -5 -57 -2 -122 -9 -144 -15 -26 -6 -77 -8 -139 -3 -64 4 -99 3 -99 -3
0 -7 81 -10 228 -8 125 1 237 0 250 -2 38 -8 27 -33 -15 -34 -21 0 -110 -7
-198 -14 l-160 -13 178 1 c110 1 179 -2 182 -8 3 -6 7 -5 11 3 9 19 20 14 20
-8 0 -11 -5 -20 -11 -21 -5 -1 -19 -2 -30 -3 -11 -1 -40 -3 -65 -4 -69 -3 -29
-22 47 -22 55 0 85 -11 70 -26 -15 -15 -257 -21 -432 -12 l-110 7 100 -13 c55
-7 93 -14 85 -16 -8 -1 -1 -6 15 -10 17 -4 101 -7 188 -5 141 2 158 0 155 -14
-2 -10 -15 -17 -36 -19 -18 -2 -44 -9 -58 -16 l-25 -14 35 -6 c20 -4 44 -2 55
4 32 17 43 13 31 -10 -6 -11 -7 -21 -3 -22 38 -8 -222 -12 -376 -6 -115 5
-199 4 -204 -1 -5 -5 2 -11 20 -15 53 -11 418 -27 488 -22 69 6 76 3 23 -8
-16 -4 -28 -11 -28 -16 0 -5 7 -6 17 -3 10 4 14 2 10 -4 -4 -6 -30 -14 -59
-18 -41 -5 -49 -9 -33 -15 13 -6 -10 -9 -65 -10 l-85 -1 45 -15 c25 -8 70 -14
100 -13 30 1 66 -3 80 -9 24 -9 23 -10 -11 -10 -20 0 -61 -5 -90 -12 -33 -7
-108 -10 -191 -8 -75 1 -134 0 -130 -4 4 -4 58 -12 120 -19 101 -10 213 -8
312 5 19 3 26 3 15 0 -40 -10 -75 -27 -75 -35 0 -5 -9 -9 -20 -9 -11 0 -20 -4
-20 -10 0 -9 58 -16 85 -10 6 1 6 -2 2 -6 -21 -22 -119 -36 -297 -42 -183 -7
-191 -8 -125 -17 39 -6 156 -10 260 -10 105 0 177 -1 160 -3 -16 -2 -33 -8
-36 -14 -12 -19 -151 -29 -274 -20 -116 9 -135 9 -123 -4 9 -8 187 -23 294
-25 l94 -1 -37 -20 c-47 -26 -131 -37 -201 -28 -29 3 -55 3 -58 -2 -3 -4 7 -8
23 -9 15 0 57 -7 93 -14 64 -15 63 -15 -80 -9 -80 3 -163 7 -185 9 -89 10
-141 16 -165 22 -14 3 -22 3 -19 -1 5 -5 80 -22 194 -42 52 -9 246 -23 371
-26 133 -3 147 -17 19 -19 -60 -1 -71 -3 -45 -9 39 -7 27 -17 -30 -23 l-35 -4
40 -2 c36 -3 37 -4 15 -11 -21 -7 -18 -8 20 -10 l45 -2 -55 -9 c-76 -13 -299
-2 -454 22 -94 14 -132 17 -140 9 -8 -8 -6 -9 7 -4 9 3 23 2 30 -4 6 -6 30
-13 52 -17 22 -4 87 -15 145 -25 58 -10 128 -21 155 -24 28 -3 60 -8 73 -12
13 -4 22 -2 22 5 0 6 10 11 23 10 21 0 21 -1 2 -8 l-20 -8 20 -5 c11 -3 -44
-6 -122 -7 -79 0 -143 -5 -143 -9 0 -11 152 -22 310 -23 63 0 111 -2 105 -4
-5 -3 -66 -8 -134 -14 -71 -5 -127 -14 -131 -20 -4 -7 -15 -9 -25 -5 -13 5
-16 4 -11 -4 5 -8 39 -12 94 -13 48 0 96 -4 107 -9 34 -16 -256 -2 -317 15
-22 6 -28 4 -28 -9 0 -12 9 -16 34 -16 19 0 69 -7 112 -16 67 -14 98 -15 214
-5 74 6 214 16 310 21 392 24 529 61 662 180 l53 47 0 882 c0 484 -4 881 -8
881 -4 0 -2 10 4 22 9 16 9 23 0 26 -6 2 -11 10 -11 18 0 9 5 12 11 8 9 -5 10
1 4 22 -4 16 -8 74 -10 129 -5 193 -19 269 -58 310 -18 20 -18 20 -7 -9z
m-740 -1786 c0 -5 -4 -10 -10 -10 -5 0 -10 5 -10 10 0 6 5 10 10 10 6 0 10 -4
10 -10z"/>
<path d="M7395 15280 c-3 -5 -1 -10 4 -10 6 0 11 5 11 10 0 6 -2 10 -4 10 -3
0 -8 -4 -11 -10z"/>
<path d="M2700 15251 c-6 -12 -10 -32 -8 -44 3 -19 11 -23 58 -29 30 -3 439
-6 908 -7 l852 -1 0 34 c0 19 -7 39 -16 47 -14 11 -177 14 -899 17 l-883 4
-12 -21z"/>
<path d="M7462 15246 c7 -8 15 -12 17 -11 5 6 -10 25 -20 25 -5 0 -4 -6 3 -14z"/>
<path d="M2723 15060 c-18 -7 -23 -18 -23 -43 0 -31 4 -35 31 -41 17 -3 146
-6 286 -6 l255 0 -7 43 c-4 23 -9 45 -11 48 -6 10 -507 9 -531 -1z"/>
<path d="M3413 15063 c-30 -4 -31 -6 -22 -35 10 -38 3 -51 -24 -44 -11 3 -16
1 -11 -4 5 -5 173 -6 387 -3 l377 6 0 38 0 37 -67 4 c-101 5 -603 6 -640 1z"/>
<path d="M6470 14942 c0 -7 10 -32 22 -55 19 -36 23 -58 23 -147 0 -117 -14
-180 -57 -256 -46 -85 -124 -144 -225 -174 -24 -7 -43 -17 -43 -22 0 -5 -9 -4
-19 2 -11 5 -32 10 -48 10 -28 -1 -28 -1 11 -25 35 -21 42 -22 60 -9 11 8 29
14 38 14 10 0 26 4 36 9 33 18 57 24 95 22 26 -2 37 2 37 11 0 16 37 52 62 61
11 4 15 12 12 22 -4 9 -1 15 7 15 24 1 71 89 68 129 -2 20 1 43 6 51 5 8 9 50
9 92 0 42 3 75 8 72 4 -3 8 -11 8 -17 1 -7 7 -25 14 -42 l14 -30 -4 42 c-3 24
-18 69 -35 102 -32 63 -98 145 -99 123z"/>
<path d="M7836 14925 c10 -8 23 -15 28 -15 6 0 1 7 -10 15 -10 8 -23 15 -28
15 -6 0 -1 -7 10 -15z"/>
<path d="M2719 14854 c-18 -5 -29 -33 -29 -71 l0 -23 269 0 c232 0 272 2 285
16 9 8 14 19 11 24 -3 5 -1 11 5 15 5 3 10 14 10 23 0 16 -24 17 -268 19 -147
1 -274 -1 -283 -3z"/>
<path d="M3320 14832 c0 -13 3 -21 8 -19 4 3 39 1 77 -3 l70 -8 -60 0 c-101 0
-105 -1 -105 -18 0 -11 8 -15 28 -13 15 2 32 1 37 -2 6 -3 127 -5 270 -5 l260
1 0 43 0 43 -292 2 -293 3 0 -24z m567 -28 c-3 -3 -12 -4 -19 -1 -8 3 -5 6 6
6 11 1 17 -2 13 -5z"/>
<path d="M7943 14840 c14 -11 29 -20 34 -20 10 1 -39 39 -51 40 -5 0 3 -9 17
-20z"/>
<path d="M8012 14783 c15 -15 30 -24 34 -20 7 7 -35 46 -51 47 -5 0 3 -12 17
-27z"/>
<path d="M8060 14746 c0 -2 7 -7 16 -10 8 -3 12 -2 9 4 -6 10 -25 14 -25 6z"/>
<path d="M8110 14705 c7 -8 17 -15 22 -15 6 0 5 7 -2 15 -7 8 -17 15 -22 15
-6 0 -5 -7 2 -15z"/>
<path d="M8150 14675 c0 -2 37 -32 83 -66 45 -35 89 -70 97 -78 8 -9 24 -23
35 -31 45 -33 -32 43 -84 83 -30 23 -68 54 -85 70 -28 25 -46 34 -46 22z"/>
<path d="M5377 14646 c-3 -8 -2 -18 3 -21 6 -4 10 -13 10 -21 0 -8 -4 -13 -9
-10 -4 3 -11 -14 -14 -39 -15 -104 -123 -261 -209 -304 l-43 -21 34 0 c27 0
42 9 78 48 24 26 55 59 68 73 14 14 25 31 25 37 0 7 4 12 8 12 5 0 15 19 22
43 8 23 22 59 32 80 22 44 28 111 11 128 -7 7 -12 6 -16 -5z"/>
<path d="M17761 14633 c-17 -33 -112 -91 -201 -124 -93 -34 -284 -76 -370 -81
-55 -4 -55 -4 -53 -35 2 -18 -1 -35 -7 -38 -6 -4 -5 -13 2 -25 18 -28 -6 -50
-56 -50 -30 0 -37 -3 -26 -10 11 -7 7 -10 -17 -10 -31 0 -43 -12 -25 -24 5 -3
34 -6 66 -7 31 -1 59 -6 62 -11 3 -4 -2 -8 -10 -8 -9 0 -13 -6 -10 -14 3 -9
-4 -13 -23 -14 -15 -1 -64 -5 -108 -10 l-80 -9 113 -1 c120 -2 128 -6 100 -52
-11 -17 -10 -22 2 -30 14 -9 -189 -17 -285 -12 -24 2 -36 -1 -30 -6 14 -12
156 -32 230 -32 64 0 100 -12 70 -24 -9 -3 -26 -6 -36 -6 -12 0 -17 -4 -14
-11 4 -6 13 -8 20 -5 12 4 31 -22 22 -31 -2 -2 -49 -4 -103 -4 -125 -1 -171
-10 -99 -20 28 -4 75 -8 106 -8 37 -1 61 -6 69 -16 10 -12 10 -15 -4 -15 -20
0 -21 -14 0 -31 28 -23 -21 -31 -171 -25 -93 3 -127 2 -100 -4 22 -5 102 -12
178 -16 75 -4 137 -11 137 -16 0 -4 -8 -9 -17 -10 -41 -4 -50 -5 -93 -13 l-45
-8 40 -13 c67 -20 18 -28 -144 -22 -140 5 -143 5 -81 -8 36 -7 122 -13 191
-14 94 0 130 -4 145 -15 17 -13 15 -14 -33 -15 -28 0 -58 -3 -67 -6 -22 -9
-10 -24 20 -24 13 0 24 -4 24 -10 0 -6 -35 -10 -85 -10 -47 0 -85 -4 -85 -9 0
-5 -10 -11 -22 -13 -13 -2 28 -10 89 -17 62 -8 110 -17 108 -22 -3 -4 5 -10
17 -12 16 -3 12 -5 -12 -6 -38 -1 -81 -21 -47 -21 10 0 26 -7 35 -17 15 -15 6
-16 -143 -9 -88 3 -176 9 -195 12 -24 3 -30 2 -20 -4 15 -10 149 -35 247 -47
29 -4 55 -11 59 -16 3 -5 -1 -9 -8 -9 -10 0 -10 -2 -1 -8 7 -4 9 -13 4 -21 -6
-10 -45 -13 -157 -13 l-149 0 60 -14 c33 -7 115 -17 183 -20 133 -8 157 -22
77 -44 -25 -7 -48 -17 -51 -21 -7 -11 -239 -12 -279 -1 -17 5 -41 5 -55 2 -21
-6 -16 -8 25 -14 28 -4 88 -13 135 -21 47 -8 112 -17 145 -21 60 -7 60 -7 30
-20 -16 -7 -25 -14 -20 -14 6 -1 1 -5 -10 -10 -16 -7 -12 -9 20 -11 33 -1 28
-3 -25 -10 -36 -4 -94 -5 -130 -3 -91 7 -58 -9 65 -31 106 -20 130 -29 105
-46 -13 -8 -13 -11 3 -23 15 -12 9 -13 -50 -10 -115 6 -195 14 -255 25 -89 18
-92 4 -3 -15 44 -10 93 -22 109 -27 16 -5 42 -9 58 -9 16 0 39 -5 50 -11 33
-18 2 -28 -72 -24 -36 2 -57 1 -47 -1 9 -3 17 -11 17 -17 0 -7 15 -19 33 -27
29 -13 30 -15 9 -18 -33 -5 -16 -22 22 -22 18 0 41 -7 52 -15 18 -15 18 -15
-6 -11 -14 3 -52 7 -85 10 l-60 6 25 -20 c25 -20 34 -21 125 -26 28 -2 82 -6
120 -9 39 -4 151 -2 250 5 99 6 187 12 195 12 32 1 167 42 210 63 50 26 120
95 137 136 8 17 10 101 8 245 -2 121 -7 467 -10 769 -4 303 -11 554 -15 559
-5 4 -13 -1 -19 -11z"/>
<path d="M11380 14630 c0 -5 6 -10 14 -10 22 0 49 -42 33 -52 -8 -5 -7 -8 6
-8 13 0 17 8 17 34 0 26 -5 35 -22 40 -33 8 -48 7 -48 -4z"/>
<path d="M11342 14571 c-11 -7 -11 -9 2 -14 10 -4 16 -1 16 8 0 17 -1 17 -18
6z"/>
<path d="M11330 14430 c20 -13 50 -13 50 0 0 6 -15 10 -32 10 -25 0 -29 -3
-18 -10z"/>
<path d="M11980 14420 c0 -5 5 -10 10 -10 6 0 10 5 10 10 0 6 -4 10 -10 10 -5
0 -10 -4 -10 -10z"/>
<path d="M16470 14416 c0 -2 7 -7 16 -10 8 -3 12 -2 9 4 -6 10 -25 14 -25 6z"/>
<path d="M5351 14394 c0 -11 3 -14 6 -6 3 7 2 16 -1 19 -3 4 -6 -2 -5 -13z"/>
<path d="M11300 14391 c0 -6 5 -13 10 -16 6 -3 10 1 10 9 0 9 -4 16 -10 16 -5
0 -10 -4 -10 -9z"/>
<path d="M11440 14370 c0 -5 15 -10 33 -9 27 0 29 2 12 9 -28 12 -45 12 -45 0z"/>
<path d="M5331 14354 c0 -11 3 -14 6 -6 3 7 2 16 -1 19 -3 4 -6 -2 -5 -13z"/>
<path d="M14688 14363 c6 -2 18 -2 25 0 6 3 1 5 -13 5 -14 0 -19 -2 -12 -5z"/>
<path d="M14738 14363 c6 -2 18 -2 25 0 6 3 1 5 -13 5 -14 0 -19 -2 -12 -5z"/>
<path d="M6035 14300 c4 -6 25 -20 48 -32 33 -16 39 -17 28 -4 -7 9 -18 16
-23 16 -5 0 -16 7 -24 15 -17 17 -39 20 -29 5z"/>
<path d="M14618 14303 c7 -3 16 -2 19 1 4 3 -2 6 -13 5 -11 0 -14 -3 -6 -6z"/>
<path d="M13888 14288 c5 -5 16 -8 23 -6 8 3 3 7 -10 11 -17 4 -21 3 -13 -5z"/>
<path d="M16718 14293 c6 -2 18 -2 25 0 6 3 1 5 -13 5 -14 0 -19 -2 -12 -5z"/>
<path d="M6328 14283 c7 -3 16 -2 19 1 4 3 -2 6 -13 5 -11 0 -14 -3 -6 -6z"/>
<path d="M5250 14269 c0 -5 5 -7 10 -4 6 3 10 8 10 11 0 2 -4 4 -10 4 -5 0
-10 -5 -10 -11z"/>
<path d="M8365 14260 c10 -11 22 -20 26 -20 5 0 1 9 -8 20 -10 11 -22 20 -27
20 -5 0 -1 -9 9 -20z"/>
<path d="M11344 14239 c-3 -5 -14 -9 -25 -9 -23 0 -25 -13 -4 -30 13 -10 19
-10 33 4 10 9 24 16 31 16 19 0 8 23 -12 26 -9 1 -19 -2 -23 -7z"/>
<path d="M3135 14213 c-463 -3 -445 -1 -445 -65 0 -16 6 -30 13 -33 6 -2 219
-6 472 -8 480 -6 526 -2 533 36 2 12 -1 15 -12 11 -9 -3 -16 -10 -16 -15 0
-22 -49 25 -52 49 -3 23 -8 27 -38 27 -19 1 -224 -1 -455 -2z"/>
<path d="M3665 14201 c-11 -20 6 -31 46 -31 32 0 40 -3 38 -17 -5 -51 -29 -48
411 -48 l411 -1 -3 51 -3 50 -447 3 c-307 2 -448 0 -453 -7z"/>
<path d="M11476 14175 c-20 -20 -20 -25 -2 -25 8 0 17 7 20 16 9 24 1 28 -18
9z"/>
<path d="M8470 14151 c0 -6 5 -13 10 -16 6 -3 10 1 10 9 0 9 -4 16 -10 16 -5
0 -10 -4 -10 -9z"/>
<path d="M8438 14073 c7 -3 16 -2 19 1 4 3 -2 6 -13 5 -11 0 -14 -3 -6 -6z"/>
<path d="M16745 14070 c3 -5 16 -10 28 -9 21 0 21 1 2 9 -28 12 -37 12 -30 0z"/>
<path d="M8317 14035 c3 -8 9 -12 14 -9 12 7 11 11 -5 17 -10 4 -13 1 -9 -8z"/>
<path d="M14678 14038 c8 -8 23 -8 54 -1 l43 11 -54 1 c-42 1 -52 -2 -43 -11z"/>
<path d="M8020 14030 c0 -5 5 -10 11 -10 5 0 7 5 4 10 -3 6 -8 10 -11 10 -2 0
-4 -4 -4 -10z"/>
<path d="M8110 14030 c0 -5 5 -10 11 -10 5 0 7 5 4 10 -3 6 -8 10 -11 10 -2 0
-4 -4 -4 -10z"/>
<path d="M11293 14033 c9 -2 23 -2 30 0 6 3 -1 5 -18 5 -16 0 -22 -2 -12 -5z"/>
<path d="M8481 14014 c0 -11 3 -14 6 -6 3 7 2 16 -1 19 -3 4 -6 -2 -5 -13z"/>
<path d="M11440 14020 c-25 -4 -35 -8 -22 -8 12 -1 31 -7 41 -14 21 -13 55 -4
49 14 -5 15 -14 16 -68 8z"/>
<path d="M8360 14006 c0 -2 9 -6 20 -9 11 -3 18 -1 14 4 -5 9 -34 13 -34 5z"/>
<path d="M2702 13945 c-24 -53 -20 -55 91 -56 56 -1 370 -1 697 -1 327 0 647
-3 710 -7 63 -5 121 -6 127 -3 31 11 -3 17 -98 17 -56 0 -95 1 -86 3 10 2 15
7 13 10 -2 4 19 6 47 5 29 -1 71 2 94 7 24 4 40 3 37 -1 -3 -5 0 -9 5 -9 6 0
11 10 11 21 0 22 -1 22 -222 17 -123 -2 -207 -1 -188 3 l35 6 -36 2 c-25 1
-39 -4 -43 -14 -8 -21 -28 -19 -24 3 3 16 -31 17 -578 20 l-581 2 -11 -25z"/>
<path d="M8257 13912 c43 -44 63 -61 63 -54 0 11 -60 72 -71 72 -5 0 -2 -8 8
-18z"/>
<path d="M8370 13926 c0 -2 7 -7 16 -10 8 -3 12 -2 9 4 -6 10 -25 14 -25 6z"/>
<path d="M13950 13920 c0 -6 7 -10 15 -10 8 0 15 2 15 4 0 2 -7 6 -15 10 -8 3
-15 1 -15 -4z"/>
<path d="M12008 13913 c7 -3 16 -2 19 1 4 3 -2 6 -13 5 -11 0 -14 -3 -6 -6z"/>
<path d="M14008 13903 c6 -2 18 -2 25 0 6 3 1 5 -13 5 -14 0 -19 -2 -12 -5z"/>
<path d="M8410 13890 c0 -6 9 -18 19 -27 11 -9 17 -21 14 -26 -3 -5 3 -7 12
-5 23 4 32 28 12 28 -9 0 -19 9 -22 20 -6 20 -35 28 -35 10z"/>
<path d="M14065 13890 c11 -5 47 -8 80 -8 l60 1 -45 8 c-25 4 -61 8 -80 8 -28
0 -31 -2 -15 -9z"/>
<path d="M14223 13873 c9 -2 25 -2 35 0 9 3 1 5 -18 5 -19 0 -27 -2 -17 -5z"/>
<path d="M8230 13827 c0 -10 8 -17 18 -17 9 0 13 4 7 8 -5 4 -13 11 -17 16 -5
5 -8 2 -8 -7z"/>
<path d="M8125 13810 c3 -5 8 -10 11 -10 2 0 4 5 4 10 0 6 -5 10 -11 10 -5 0
-7 -4 -4 -10z"/>
<path d="M8150 13792 c0 -10 31 -55 44 -64 6 -4 20 -7 31 -7 14 0 16 2 5 6 -8
3 -30 21 -47 39 -18 19 -33 31 -33 26z"/>
<path d="M8200 13793 c0 -12 38 -48 44 -42 3 2 -6 15 -20 28 -13 13 -24 19
-24 14z"/>
<path d="M7515 13760 c3 -5 8 -10 11 -10 2 0 4 5 4 10 0 6 -5 10 -11 10 -5 0
-7 -4 -4 -10z"/>
<path d="M8100 13750 c0 -5 5 -10 10 -10 6 0 10 5 10 10 0 6 -4 10 -10 10 -5
0 -10 -4 -10 -10z"/>
<path d="M7490 13731 c0 -10 19 -25 25 -20 1 2 -3 10 -11 17 -8 7 -14 8 -14 3z"/>
<path d="M2707 13709 c-22 -31 -22 -66 1 -78 11 -6 338 -10 840 -11 l822 -1 0
44 0 44 -662 6 c-365 4 -735 10 -824 14 l-161 6 -16 -24z"/>
<path d="M8270 13705 c0 -8 5 -15 10 -15 6 0 10 7 10 15 0 8 -4 15 -10 15 -5
0 -10 -7 -10 -15z"/>
<path d="M8072 13696 c7 -8 15 -12 17 -11 5 6 -10 25 -20 25 -5 0 -4 -6 3 -14z"/>
<path d="M8131 13694 c0 -11 3 -14 6 -6 3 7 2 16 -1 19 -3 4 -6 -2 -5 -13z"/>
<path d="M8160 13700 c0 -5 5 -10 11 -10 5 0 7 5 4 10 -3 6 -8 10 -11 10 -2 0
-4 -4 -4 -10z"/>
<path d="M11390 13685 c7 -8 18 -15 25 -15 8 0 15 -5 17 -12 4 -12 28 -3 28
11 0 10 -46 31 -67 31 -13 0 -13 -3 -3 -15z"/>
<path d="M7992 13660 c-1 -16 2 -31 7 -34 5 -3 8 8 6 24 -3 41 -10 46 -13 10z"/>
<path d="M8085 13660 c-3 -5 -1 -10 4 -10 6 0 11 5 11 10 0 6 -2 10 -4 10 -3
0 -8 -4 -11 -10z"/>
<path d="M13828 13653 c7 -3 16 -2 19 1 4 3 -2 6 -13 5 -11 0 -14 -3 -6 -6z"/>
<path d="M16535 13650 c11 -5 27 -9 35 -9 9 0 8 4 -5 9 -11 5 -27 9 -35 9 -9
0 -8 -4 5 -9z"/>
<path d="M8110 13630 c0 -5 7 -10 16 -10 8 0 12 5 9 10 -3 6 -10 10 -16 10 -5
0 -9 -4 -9 -10z"/>
<path d="M16320 13636 c0 -2 7 -7 16 -10 8 -3 12 -2 9 4 -6 10 -25 14 -25 6z"/>
<path d="M7656 13613 c-6 -14 -5 -15 5 -6 7 7 10 15 7 18 -3 3 -9 -2 -12 -12z"/>
<path d="M7790 13606 c0 -2 7 -7 16 -10 8 -3 12 -2 9 4 -6 10 -25 14 -25 6z"/>
<path d="M8020 13606 c0 -2 7 -7 16 -10 8 -3 12 -2 9 4 -6 10 -25 14 -25 6z"/>
<path d="M11360 13600 c0 -5 5 -10 10 -10 6 0 10 5 10 10 0 6 -4 10 -10 10 -5
0 -10 -4 -10 -10z"/>
<path d="M7644 13561 c19 -21 46 -29 46 -12 0 5 -8 11 -17 15 -10 3 -25 9 -33
12 -10 5 -9 0 4 -15z"/>
<path d="M8060 13571 c0 -11 61 -71 72 -71 16 0 7 14 -28 47 -39 35 -44 38
-44 24z"/>
<path d="M9555 13569 c-4 -6 -5 -13 -2 -16 7 -7 27 6 27 18 0 12 -17 12 -25
-2z"/>
<path d="M7730 13562 c0 -5 9 -17 20 -27 20 -18 21 -18 12 5 -9 24 -32 40 -32
22z"/>
<path d="M7850 13558 c0 -15 49 -78 61 -78 18 0 9 28 -20 59 -31 33 -41 38
-41 19z"/>
<path d="M14158 13553 c6 -2 18 -2 25 0 6 3 1 5 -13 5 -14 0 -19 -2 -12 -5z"/>
<path d="M9291 13305 c-129 -129 -231 -238 -228 -241 5 -5 23 10 64 58 6 7 27
26 47 42 19 17 33 33 30 38 -3 4 -1 8 3 8 5 0 26 16 46 35 20 19 34 35 30 35
-4 0 3 7 16 16 19 14 25 14 32 3 4 -7 11 -10 16 -6 4 5 1 12 -6 16 -11 7 -11
13 3 32 9 13 16 20 16 17 0 -4 30 24 68 62 82 84 113 120 103 120 -3 0 -112
-106 -240 -235z"/>
<path d="M7697 13522 c-3 -4 3 -17 12 -28 17 -21 18 -21 29 -3 17 27 15 31 -9
24 -15 -5 -19 -4 -15 4 4 6 3 11 -3 11 -5 0 -12 -3 -14 -8z"/>
<path d="M11330 13511 c0 -5 6 -14 14 -20 11 -9 16 -9 21 0 4 6 1 15 -6 20
-18 11 -29 11 -29 0z"/>
<path d="M7746 13491 c-7 -10 22 -37 30 -28 9 8 -3 37 -15 37 -5 0 -12 -4 -15
-9z"/>
<path d="M11798 13473 c12 -2 30 -2 40 0 9 3 -1 5 -23 4 -22 0 -30 -2 -17 -4z"/>
<path d="M11878 13473 c12 -2 30 -2 40 0 9 3 -1 5 -23 4 -22 0 -30 -2 -17 -4z"/>
<path d="M14208 13383 c12 -2 32 -2 45 0 12 2 2 4 -23 4 -25 0 -35 -2 -22 -4z"/>
<path d="M12068 13323 c7 -3 16 -2 19 1 4 3 -2 6 -13 5 -11 0 -14 -3 -6 -6z"/>
<path d="M16543 13313 c9 -2 23 -2 30 0 6 3 -1 5 -18 5 -16 0 -22 -2 -12 -5z"/>
<path d="M2675 13296 c-81 -20 -126 -46 -191 -111 -91 -90 -116 -151 -122
-296 -5 -125 4 -171 56 -274 28 -56 133 -165 204 -211 l46 -31 944 -6 c519 -4
1332 -10 1808 -13 492 -3 937 -2 1032 3 158 9 170 11 232 42 70 34 142 105
179 175 18 34 22 62 25 171 3 79 -1 151 -8 185 -40 186 -188 337 -360 370 -83
16 -3780 12 -3845 -4z m297 -263 c32 -37 30 -44 -5 -27 -37 18 -69 15 -101 -9
-30 -22 -34 -121 -6 -165 32 -51 114 -81 134 -48 6 11 18 27 27 36 9 10 18 22
20 29 2 6 18 13 36 17 25 5 33 2 42 -14 12 -23 -6 -47 -64 -83 -74 -47 -194
-9 -234 74 -50 103 0 207 100 207 22 0 42 -7 51 -17z m458 -100 c0 -21 5 -56
10 -77 12 -52 3 -96 -20 -96 -23 0 -30 28 -30 128 0 75 2 82 20 82 16 0 20 -7
20 -37z m-203 19 c7 -4 16 -43 22 -87 11 -91 4 -107 -42 -98 -26 5 -28 8 -22
42 4 25 0 51 -13 81 -10 25 -17 51 -15 58 5 13 51 16 70 4z m367 -39 c-3 -21
-10 -42 -15 -47 -5 -6 -9 -32 -9 -58 0 -47 -5 -55 -26 -40 -12 9 -34 101 -34
148 0 34 0 34 45 34 l46 0 -7 -37z m1025 -58 c2 -11 11 -30 21 -43 16 -20 20
-21 33 -7 9 8 23 15 31 15 9 0 16 7 16 15 0 8 7 15 15 15 18 0 20 -27 3 -33
-7 -2 -1 -6 14 -9 25 -5 27 -3 22 18 -5 20 -2 24 15 24 12 0 21 -4 21 -9 0 -5
9 -7 20 -4 15 4 22 -2 30 -23 21 -54 -15 -82 -56 -43 l-24 23 -15 -21 c-18
-26 -80 -29 -94 -5 -8 13 -12 14 -25 3 -13 -11 -17 -9 -26 14 -5 14 -10 31
-10 36 0 5 -4 9 -10 9 -5 0 -10 -4 -10 -9 0 -5 -13 -23 -29 -40 -42 -44 -83
-43 -101 4 -16 40 -30 37 -30 -7 0 -25 -3 -28 -14 -19 -7 6 -20 9 -29 5 -24
-9 -57 14 -57 41 0 14 11 32 26 44 28 22 44 20 44 -5 0 -21 17 -17 23 6 8 29
34 24 42 -7 14 -57 25 -58 72 -8 44 49 75 56 82 20z m-1668 -17 c-23 -18 -61
-25 -61 -10 1 10 63 39 74 33 5 -2 -1 -12 -13 -23z m919 7 c0 -7 2 -25 5 -41
3 -16 1 -36 -4 -44 -9 -12 -12 -12 -28 2 -10 8 -28 19 -41 23 -18 5 -21 11
-17 28 4 12 15 29 26 39 21 18 59 13 59 -7z m-888 -27 c-6 -6 -7 0 -4 19 5 21
7 23 10 9 2 -10 0 -22 -6 -28z m702 33 c3 -4 16 -6 28 -4 17 3 26 -3 35 -22 9
-20 8 -25 -3 -25 -7 0 -18 -9 -24 -20 -23 -42 -110 -9 -110 41 0 29 60 53 74
30z m349 -23 c-9 -49 -32 -80 -57 -76 -17 2 -22 11 -24 42 -5 57 2 66 47 66
40 0 40 0 34 -32z m257 -10 c28 -59 26 -70 -12 -66 -25 2 -32 7 -30 21 2 14
-5 17 -38 17 -33 0 -40 -3 -40 -20 0 -30 -43 -26 -64 5 -9 13 -16 31 -16 39 0
21 35 38 62 31 13 -3 41 -2 63 4 22 5 43 9 47 10 4 1 17 -18 28 -41z m659 -8
c14 -64 14 -60 -8 -60 -19 0 -31 34 -31 86 0 45 28 26 39 -26z"/>
<path d="M3991 12804 c0 -11 3 -14 6 -6 3 7 2 16 -1 19 -3 4 -6 -2 -5 -13z"/>
<path d="M13877 13279 c7 -7 15 -10 18 -7 3 3 -2 9 -12 12 -14 6 -15 5 -6 -5z"/>
<path d="M11348 13193 c7 -3 16 -2 19 1 4 3 -2 6 -13 5 -11 0 -14 -3 -6 -6z"/>
<path d="M11440 13172 c0 -5 7 -15 15 -22 8 -7 15 -8 15 -2 0 5 -7 15 -15 22
-8 7 -15 8 -15 2z"/>
<path d="M13797 13169 c7 -7 15 -10 18 -7 3 3 -2 9 -12 12 -14 6 -15 5 -6 -5z"/>
<path d="M13940 13120 c19 -13 30 -13 30 0 0 6 -10 10 -22 10 -19 0 -20 -2 -8
-10z"/>
<path d="M13750 13060 c0 -5 18 -19 41 -31 23 -11 38 -16 35 -11 -10 16 -76
52 -76 42z"/>
<path d="M8995 13008 c-45 -45 -47 -49 -18 -34 24 12 33 13 37 3 3 -6 3 -2 1
10 -4 15 1 26 16 36 12 9 20 20 18 26 -2 5 -26 -13 -54 -41z"/>
<path d="M13842 13016 c3 -4 23 -12 43 -16 22 -5 34 -5 28 1 -10 10 -81 25
-71 15z"/>
<path d="M13948 12983 c6 -2 18 -2 25 0 6 3 1 5 -13 5 -14 0 -19 -2 -12 -5z"/>
<path d="M8935 12942 c-6 -4 -19 -18 -30 -32 -17 -22 -16 -22 12 3 22 21 32
25 36 15 4 -8 6 -9 6 -1 1 15 -12 24 -24 15z"/>
<path d="M8865 12881 c-3 -5 -2 -12 3 -15 5 -3 9 1 9 9 0 17 -3 19 -12 6z"/>
<path d="M11490 12866 c0 -9 5 -16 10 -16 6 0 10 4 10 9 0 6 -4 13 -10 16 -5
3 -10 -1 -10 -9z"/>
<path d="M8835 12850 c-3 -5 1 -10 10 -10 9 0 13 5 10 10 -3 6 -8 10 -10 10
-2 0 -7 -4 -10 -10z"/>
<path d="M13853 12853 c9 -2 23 -2 30 0 6 3 -1 5 -18 5 -16 0 -22 -2 -12 -5z"/>
<path d="M13903 12833 c9 -2 23 -2 30 0 6 3 -1 5 -18 5 -16 0 -22 -2 -12 -5z"/>
<path d="M11955 12805 c-39 -13 -38 -13 30 -8 82 7 124 23 55 22 -25 -1 -63
-7 -85 -14z"/>
<path d="M14020 12810 c14 -4 34 -8 45 -8 l20 -1 -20 9 c-11 5 -31 8 -45 8
l-25 0 25 -8z"/>
<path d="M8785 12800 c-3 -5 -1 -10 4 -10 6 0 11 5 11 10 0 6 -2 10 -4 10 -3
0 -8 -4 -11 -10z"/>
<path d="M8754 12758 l-19 -23 23 19 c12 11 22 21 22 23 0 8 -8 2 -26 -19z"/>
<path d="M14133 12763 c9 -2 25 -2 35 0 9 3 1 5 -18 5 -19 0 -27 -2 -17 -5z"/>
<path d="M11005 12645 c17 -14 37 -25 45 -24 8 0 0 8 -17 16 -18 9 -33 20 -33
25 0 4 -6 8 -12 8 -7 -1 1 -12 17 -25z"/>
<path d="M11088 12623 c7 -3 16 -2 19 1 4 3 -2 6 -13 5 -11 0 -14 -3 -6 -6z"/>
<path d="M11148 12613 c7 -3 16 -2 19 1 4 3 -2 6 -13 5 -11 0 -14 -3 -6 -6z"/>
<path d="M6890 12582 c-8 -15 -23 -40 -33 -55 -21 -30 -17 -48 6 -26 14 15 50
99 44 105 -2 2 -10 -8 -17 -24z"/>
<path d="M6811 12446 l-24 -31 28 27 c16 15 27 29 24 31 -2 3 -15 -10 -28 -27z"/>
<path d="M13900 11881 c-2799 -6 -2988 -7 -3034 -24 -112 -39 -216 -128 -265
-226 -52 -103 -61 -179 -68 -570 -6 -382 0 -464 39 -549 26 -56 118 -149 173
-176 22 -10 48 -23 58 -28 84 -42 565 -51 3117 -58 1284 -4 2385 -8 2445 -8
61 -1 367 1 680 2 l570 4 79 26 c118 40 197 100 297 226 59 75 90 132 116 215
16 53 18 98 18 405 l0 345 -29 55 c-76 146 -233 300 -338 331 -124 36 -221 37
-3858 30z m-2231 -373 c31 -16 55 -39 75 -71 30 -48 30 -72 1 -43 -11 11 -34
16 -73 16 -31 0 -66 3 -77 6 -16 4 -23 -2 -32 -25 -10 -27 -9 -29 6 -20 10 7
48 7 106 2 l90 -8 0 -45 0 -45 -88 0 c-87 1 -88 0 -66 -17 12 -10 19 -22 15
-26 -4 -3 -136 -9 -294 -12 -221 -4 -287 -8 -286 -17 1 -7 2 -27 3 -43 l1 -31
56 5 c41 3 60 9 67 21 9 17 11 16 27 -5 11 -15 22 -20 30 -15 7 5 105 9 218
11 131 1 208 6 215 13 6 6 38 11 71 11 l61 0 -3 -317 c-2 -246 -6 -321 -16
-331 -10 -11 -92 -13 -392 -12 -347 0 -380 2 -396 18 -17 16 -18 56 -23 477
-2 253 -2 468 1 478 15 47 89 57 413 52 233 -3 245 -5 290 -27z m4222 -267
c30 -30 39 -46 39 -73 0 -41 -34 -97 -70 -115 -61 -32 -170 26 -170 89 0 75
56 138 123 138 32 0 46 -7 78 -39z m1514 9 c56 -35 69 -91 35 -148 -26 -42
-80 -66 -131 -57 -50 9 -99 64 -99 112 0 34 39 106 62 117 23 10 100 -4 133
-24z m-989 -16 c46 -48 48 -108 5 -156 -26 -29 -34 -32 -84 -32 -45 0 -61 4
-81 23 -39 37 -51 75 -37 121 18 61 45 80 109 80 50 0 58 -3 88 -36z m489 12
c51 -52 50 -145 -3 -187 -40 -31 -117 -21 -154 21 -42 46 -36 123 13 169 33
31 112 29 144 -3z m-1557 -21 c9 -3 12 -23 11 -65 l-2 -60 -1386 -2 c-762 -2
-1406 -1 -1430 2 -38 4 -46 9 -54 33 -14 43 -1 95 26 99 36 5 2821 -2 2835 -7z
m-4228 -59 c0 -11 -19 -15 -25 -6 -3 5 1 10 9 10 9 0 16 -2 16 -4z"/>
<path d="M11548 11314 c-2 -19 0 -37 4 -40 16 -10 28 8 28 42 0 47 -26 46 -32
-2z"/>
<path d="M11480 11100 c0 -5 5 -10 11 -10 5 0 7 5 4 10 -3 6 -8 10 -11 10 -2
0 -4 -4 -4 -10z"/>
<path d="M11550 11100 c0 -5 5 -10 10 -10 6 0 10 5 10 10 0 6 -4 10 -10 10 -5
0 -10 -4 -10 -10z"/>
<path d="M11425 11090 c3 -5 8 -10 11 -10 2 0 4 5 4 10 0 6 -5 10 -11 10 -5 0
-7 -4 -4 -10z"/>
<path d="M11155 11060 c-3 -5 -1 -10 4 -10 6 0 11 5 11 10 0 6 -2 10 -4 10 -3
0 -8 -4 -11 -10z"/>
<path d="M11078 11043 c12 -2 30 -2 40 0 9 3 -1 5 -23 4 -22 0 -30 -2 -17 -4z"/>
<path d="M11093 11003 c-27 -4 -33 -9 -33 -29 0 -13 -1 -27 -2 -31 -4 -9 107
-7 121 2 6 3 11 17 11 31 0 17 -5 24 -20 24 -12 0 -20 -7 -21 -17 0 -14 -2
-13 -9 5 -5 12 -11 21 -12 20 -2 0 -18 -3 -35 -5z"/>
<path d="M11210 10968 c0 -36 27 -49 47 -22 13 18 15 18 24 2 16 -28 47 -22
52 10 l4 27 2 -27 c1 -20 6 -28 19 -28 11 0 22 11 29 28 l10 27 8 -27 c8 -30
45 -40 45 -13 0 8 5 15 10 15 6 0 10 -7 10 -15 0 -11 11 -15 40 -15 36 0 40 3
40 25 0 14 5 25 10 25 6 0 10 -11 10 -24 0 -15 7 -26 20 -29 15 -4 20 -1 18
11 -2 9 2 17 7 18 43 7 76 34 43 34 -7 0 -111 2 -230 4 l-218 2 0 -28z m300
-13 c0 -8 -4 -15 -10 -15 -5 0 -10 7 -10 15 0 8 5 15 10 15 6 0 10 -7 10 -15z"/>
<path d="M11620 10930 c0 -5 12 -10 26 -10 14 0 23 4 19 10 -3 6 -15 10 -26
10 -10 0 -19 -4 -19 -10z"/>
<path d="M11068 10862 c-23 -4 -24 -32 -2 -32 13 0 15 -7 10 -31 l-6 -32 42 7
c23 4 43 8 44 9 1 1 4 20 6 42 l3 40 -40 0 c-22 1 -48 -1 -57 -3z m68 -49 c-3
-20 -22 -28 -31 -13 -8 13 13 42 25 35 5 -3 7 -13 6 -22z"/>
<path d="M11208 10838 c-9 -25 5 -56 25 -62 26 -7 25 -8 19 37 -3 27 -9 37
-22 37 -10 0 -20 -5 -22 -12z"/>
<path d="M11529 10846 c-2 -3 -32 -6 -67 -7 -61 -2 -62 -3 -62 -31 0 -15 2
-28 4 -28 2 0 11 -3 20 -6 13 -5 16 1 17 27 1 23 3 27 6 12 2 -12 11 -27 19
-33 12 -10 14 -7 14 19 0 38 20 42 21 4 l1 -28 8 25 c8 24 8 24 9 3 2 -36 18
-27 23 12 4 32 -1 43 -13 31z"/>
<path d="M11582 10843 c-34 -7 -25 -54 13 -65 32 -8 45 -3 45 18 0 8 5 12 10
9 6 -3 10 3 10 13 0 11 -7 23 -16 26 -16 6 -24 6 -62 -1z m44 -28 c1 -8 -2
-17 -7 -21 -5 -3 -9 7 -9 22 0 27 12 26 16 -1z"/>
<path d="M11297 10833 c-11 -10 -8 -55 2 -49 5 4 11 1 13 -5 2 -7 15 -9 35 -5
24 6 32 13 35 37 4 28 3 29 -37 29 -23 0 -45 -3 -48 -7z m39 -40 c-11 -11 -19
6 -11 24 8 17 8 17 12 0 3 -10 2 -21 -1 -24z"/>
<path d="M11065 10708 c-13 -38 -12 -67 2 -72 19 -8 94 -7 158 0 l50 6 2 39
c1 41 -6 46 -55 33 -19 -6 -22 -11 -17 -35 5 -22 3 -29 -8 -29 -8 0 -17 13
-20 30 -8 40 -34 39 -46 -2 -6 -24 -10 -27 -11 -13 -1 11 -2 24 -1 29 4 22
-47 35 -54 14z"/>
<path d="M11304 10704 c3 -9 6 -27 6 -40 0 -21 5 -24 34 -24 33 0 34 0 26 34
-4 19 -5 37 -2 40 3 4 -12 6 -32 6 -31 0 -37 -3 -32 -16z"/>
<path d="M11398 10680 c-3 -35 -1 -40 18 -40 17 0 20 5 16 30 -3 23 -1 30 13
30 14 0 16 -7 13 -30 -3 -20 0 -30 9 -30 8 0 13 13 13 35 0 19 5 35 10 35 6 0
10 -16 10 -35 0 -30 3 -35 23 -35 20 0 23 6 25 40 l3 40 -75 0 -74 0 -4 -40z"/>
<path d="M11583 10714 c-7 -3 -13 -21 -13 -39 0 -30 3 -33 35 -37 20 -2 37 -3
39 -1 1 2 0 20 -3 41 -6 37 -26 49 -58 36z m35 -47 c5 -24 -15 -21 -21 4 -3
13 -1 19 6 16 7 -2 13 -11 15 -20z"/>
<path d="M16305 11170 c3 -5 8 -10 11 -10 2 0 4 5 4 10 0 6 -5 10 -11 10 -5 0
-7 -4 -4 -10z"/>
<path d="M16795 11170 c-3 -5 3 -10 15 -10 12 0 18 5 15 10 -3 6 -10 10 -15
10 -5 0 -12 -4 -15 -10z"/>
<path d="M16820 11140 c0 -5 7 -10 15 -10 8 0 15 5 15 10 0 6 -7 10 -15 10 -8
0 -15 -4 -15 -10z"/>
<path d="M2820 11550 c-131 -5 -151 -8 -203 -32 -80 -38 -180 -136 -217 -213
-43 -92 -53 -182 -48 -437 5 -213 6 -226 32 -288 46 -113 142 -221 259 -290
42 -25 44 -25 347 -30 362 -6 3357 -2 3448 5 157 11 301 138 349 309 33 114
32 114 29 46 -2 -36 -7 -76 -11 -90 -6 -23 -4 -22 12 5 16 26 18 50 15 184 -1
85 -6 157 -11 160 -5 4 -10 92 -12 196 -1 119 -6 195 -13 204 -9 12 -8 13 3 6
16 -9 -16 38 -74 109 -52 65 -154 130 -225 145 -57 12 -3379 22 -3680 11z
m298 -395 c0 -13 -5 -22 -10 -19 -10 7 -47 -35 -48 -54 0 -8 -6 -12 -12 -10
-7 3 -14 23 -16 45 l-3 41 37 -1 c21 -1 39 4 42 11 6 19 10 14 10 -13z m644
-7 c-7 -7 -12 -8 -12 -2 0 14 12 26 19 19 2 -3 -1 -11 -7 -17z m274 -2 c-4
-16 1 -37 15 -60 25 -42 21 -52 -26 -60 -29 -6 -35 -11 -36 -34 -1 -30 -29
-84 -47 -90 -7 -2 -12 6 -12 22 0 14 -5 26 -11 26 -6 0 -8 9 -4 20 5 14 2 20
-9 20 -20 0 -20 9 0 31 11 13 13 22 6 35 -9 16 -10 16 -16 -3 -7 -21 -34 -38
-44 -28 -3 3 0 5 6 5 7 0 12 5 12 10 0 6 -11 10 -25 10 -14 0 -25 4 -25 9 0
27 25 70 46 80 30 13 71 14 79 2 6 -11 46 -6 54 7 5 8 24 18 40 21 2 1 0 -10
-3 -23z m-1126 -1 c9 -11 23 -14 46 -9 29 5 32 4 27 -14 -3 -15 6 -27 42 -51
47 -32 79 -39 90 -21 3 6 14 10 25 10 13 0 17 -5 13 -18 -2 -11 -13 -18 -25
-18 -12 1 -22 -6 -23 -16 -2 -10 3 -18 10 -18 7 0 18 -7 25 -15 11 -13 8 -19
-14 -40 -15 -14 -33 -25 -41 -25 -16 0 -107 116 -151 192 -7 12 -14 16 -18 10
-4 -6 7 -32 24 -58 38 -60 38 -74 -2 -113 -39 -38 -47 -33 -23 13 l19 35 -25
20 c-31 27 -59 35 -71 23 -17 -17 4 -84 40 -124 37 -41 24 -53 -21 -18 -51 41
-81 143 -61 216 11 43 89 69 114 39z m753 -22 c6 -13 17 -22 26 -21 9 2 22 -7
29 -20 16 -33 15 -39 -9 -45 -18 -5 -19 -8 -8 -29 10 -19 10 -21 -2 -12 -8 6
-21 14 -30 17 -14 5 -15 2 -7 -21 12 -32 -14 -107 -34 -99 -14 4 -16 51 -3 81
7 16 6 17 -14 7 -26 -15 -44 -5 -38 20 3 10 0 20 -6 22 -6 2 -8 11 -4 21 4 10
13 16 21 13 18 -7 30 20 14 29 -7 4 -14 2 -16 -4 -2 -7 -11 -12 -21 -12 -9 0
-22 -5 -29 -12 -23 -23 -35 5 -21 50 11 38 14 41 53 44 63 5 87 -2 99 -29z
m705 -2 c7 -21 12 -43 12 -48 0 -17 -44 -60 -67 -68 -24 -7 -99 15 -84 25 5 3
4 19 -4 36 -10 23 -19 31 -36 30 -17 -1 -23 -7 -21 -19 2 -11 -2 -15 -12 -11
-31 12 -29 57 2 69 9 3 47 8 86 11 38 2 72 6 74 9 17 17 40 1 50 -34z m-1006
-1 c10 -17 25 -30 37 -30 25 0 18 -30 -15 -61 -13 -12 -24 -29 -24 -36 0 -11
-4 -11 -21 -3 -25 14 -41 3 -16 -11 19 -11 22 -45 7 -69 -9 -13 -11 -13 -20 0
-6 8 -8 25 -5 38 4 15 0 24 -10 29 -12 4 -15 13 -11 29 5 19 2 24 -13 24 -34
0 -51 11 -51 34 0 12 -5 27 -10 34 -6 6 -7 10 -4 7 4 -2 16 1 28 8 22 12 83
34 101 36 6 0 18 -13 27 -29z m-239 -30 c-7 -28 -13 -25 -13 6 0 14 4 23 9 20
5 -3 7 -15 4 -26z m-227 -81 c10 -16 -18 -40 -35 -29 -12 7 -12 11 -2 24 16
19 27 20 37 5z m1404 -45 c0 -8 -7 -14 -15 -14 -15 0 -21 21 -9 33 10 9 24 -2
24 -19z m-1275 -94 c4 -6 -14 -10 -47 -9 -42 1 -48 3 -28 9 36 12 68 12 75 0z
m1535 -103 c0 -17 -7 -28 -20 -31 -11 -3 -29 -9 -40 -12 -15 -4 -20 -1 -20 15
0 27 -17 27 -25 1 -9 -28 -18 -25 -33 9 -15 34 -6 81 14 81 11 0 12 -4 4 -19
-15 -29 -13 -46 3 -32 8 6 17 8 20 4 4 -3 7 -1 7 5 0 5 -6 13 -12 15 -10 4
-10 6 -1 6 6 1 15 -3 18 -9 7 -11 28 -14 22 -2 -3 4 -1 17 4 30 l9 24 25 -30
c14 -17 25 -41 25 -55z m70 70 c0 -7 -4 -17 -9 -22 -6 -6 -4 -15 4 -22 10 -10
14 -7 20 14 7 31 15 25 21 -17 7 -41 -2 -68 -18 -52 -8 8 -17 8 -30 1 -11 -6
-22 -8 -25 -5 -5 4 -7 59 -4 99 1 20 41 24 41 4z m-1720 -14 c71 -5 126 -17
133 -27 6 -7 7 -5 4 6 -5 14 4 16 76 16 45 0 91 2 102 3 15 3 20 -3 26 -34 7
-46 22 -63 18 -22 -4 59 -1 65 35 65 19 0 41 -7 50 -15 18 -18 26 -19 26 -2 0
17 158 21 178 5 9 -8 16 -8 20 -1 4 5 28 10 53 11 44 0 46 -1 56 -36 l10 -37
2 36 c0 22 7 39 16 42 19 8 22 1 31 -61 6 -51 6 -52 -20 -52 -18 0 -26 5 -27
18 0 13 -2 14 -6 2 -9 -23 -25 -30 -46 -19 -13 7 -23 7 -32 -1 -9 -8 -26 -9
-47 -4 -18 4 -37 7 -42 5 -6 -1 -169 -2 -365 -2 -385 0 -371 -2 -371 57 0 38
7 46 31 33 13 -7 19 -21 19 -46 0 -50 8 -38 11 17 3 54 7 63 22 53 7 -4 23 -9
37 -10z m931 5 c22 -6 39 -14 39 -17 0 -3 10 -17 21 -31 17 -20 20 -21 14 -5
-12 35 -12 50 -1 57 21 15 36 8 36 -16 0 -13 4 -26 9 -28 5 -1 12 -19 16 -39
l7 -35 -57 3 c-67 3 -75 7 -75 38 0 13 -4 26 -9 30 -6 3 -8 -8 -4 -29 6 -40
-6 -51 -41 -35 -23 11 -26 18 -26 59 0 65 5 68 71 48z m269 -8 c16 -16 20 -17
20 -5 0 8 9 15 20 15 11 0 20 -7 20 -15 0 -8 5 -15 11 -15 6 0 9 -7 5 -15 -3
-9 0 -15 8 -15 8 0 16 -11 18 -24 4 -18 1 -23 -16 -22 -12 1 -22 9 -24 21 -2
11 -9 25 -14 30 -7 7 -9 1 -4 -17 7 -31 -8 -45 -29 -28 -9 8 -15 8 -15 2 0
-11 -18 -11 -37 1 -8 5 -13 4 -13 -2 0 -15 -47 -14 -56 1 -5 7 -7 25 -6 40 1
15 -2 28 -8 28 -5 0 -10 7 -10 15 0 29 27 14 45 -25 21 -47 35 -43 35 11 0 45
17 52 50 19z m278 -46 c3 -51 2 -56 -12 -45 -11 9 -16 10 -16 2 0 -6 -5 -11
-11 -11 -14 0 -3 88 13 107 17 21 23 8 26 -53z m-134 50 c9 -3 13 -10 10 -15
-3 -5 -1 -9 4 -9 5 0 9 -15 8 -32 -1 -25 -7 -34 -22 -36 -15 -2 -23 6 -32 31
-22 61 -13 78 32 61z m72 -28 c8 -34 1 -61 -16 -61 -14 0 -33 69 -22 80 13 13
32 3 38 -19z"/>
<path d="M3860 11080 c0 -5 4 -10 9 -10 6 0 13 5 16 10 3 6 -1 10 -9 10 -9 0
-16 -4 -16 -10z"/>
<path d="M2843 11111 c-13 -11 -23 -27 -23 -37 0 -15 6 -11 30 14 17 18 30 35
30 38 0 9 -16 3 -37 -15z"/>
<path d="M3300 11045 c0 -9 6 -12 15 -9 8 4 12 10 9 15 -8 14 -24 10 -24 -6z"/>
<path d="M4600 10779 c0 -5 5 -7 10 -4 6 3 10 8 10 11 0 2 -4 4 -10 4 -5 0
-10 -5 -10 -11z"/>
<path d="M3432 10780 c0 -14 2 -19 5 -12 2 6 2 18 0 25 -3 6 -5 1 -5 -13z"/>
<path d="M3577 10780 c8 -29 25 -37 21 -9 -1 12 -8 24 -15 26 -7 3 -9 -3 -6
-17z"/>
<path d="M3372 10760 c0 -14 2 -19 5 -12 2 6 2 18 0 25 -3 6 -5 1 -5 -13z"/>
<path d="M4101 10764 c0 -11 3 -14 6 -6 3 7 2 16 -1 19 -3 4 -6 -2 -5 -13z"/>
<path d="M7538 11413 c-18 -3 -28 -11 -28 -21 0 -14 -2 -14 -9 -3 -7 11 -10 9
-14 -10 -4 -23 -4 -22 -6 4 -2 41 -27 34 -35 -10 -3 -21 -6 -42 -6 -48 0 -6
75 -9 208 -8 166 1 206 4 203 15 -2 7 -4 29 -3 48 l1 35 -142 1 c-78 0 -154
-1 -169 -3z"/>
<path d="M7900 11390 c0 -5 5 -10 10 -10 6 0 10 5 10 10 0 6 -4 10 -10 10 -5
0 -10 -4 -10 -10z"/>
<path d="M7118 11205 c-5 -5 -8 -25 -8 -46 0 -27 5 -39 18 -43 23 -7 1554 -16
1614 -9 l47 5 -1 44 -2 44 -712 0 c-391 0 -764 3 -830 6 -65 4 -122 3 -126 -1z
m128 -57 c4 -5 -7 -8 -24 -8 -18 0 -32 4 -32 8 0 10 46 10 56 0z"/>
<path d="M7466 10975 c-9 -9 -16 -32 -16 -51 l0 -34 230 0 230 0 0 34 c0 66 9
64 -219 65 -180 2 -211 0 -225 -14z"/>
<path d="M8094 10959 c-15 -25 -22 -80 -11 -84 7 -2 108 -5 225 -7 l213 -4 -7
46 c-4 25 -8 48 -11 53 -7 12 -401 9 -409 -4z"/>
<path d="M7115 10920 c3 -5 8 -10 11 -10 2 0 4 5 4 10 0 6 -5 10 -11 10 -5 0
-7 -4 -4 -10z"/>
<path d="M7100 10680 l0 -50 1195 0 1194 0 -2 48 -2 47 -1192 3 -1193 2 0 -50z"/>
<path d="M6705 10372 c-5 -4 -17 -16 -25 -27 -11 -15 -7 -14 13 4 24 22 32 31
25 31 -2 0 -7 -4 -13 -8z"/>
<path d="M17040 9934 c-130 -27 -100 -40 37 -16 42 7 53 6 58 -6 4 -10 0 -13
-15 -9 -11 3 -20 1 -20 -3 0 -12 -66 -30 -108 -30 -18 0 -40 -4 -50 -9 -51
-25 -114 -51 -127 -51 -7 0 -27 -11 -43 -25 -17 -14 -33 -25 -36 -25 -3 0 -40
-25 -82 -56 -187 -138 -269 -255 -315 -449 -12 -49 -25 -99 -30 -110 -12 -27
-49 -202 -49 -233 l0 -25 -19 21 c-10 12 -21 19 -25 15 -3 -3 -6 2 -6 12 0 13
-3 16 -10 9 -6 -6 -16 -50 -23 -97 -7 -58 -16 -87 -24 -87 -7 0 -13 -10 -13
-22 0 -16 -3 -19 -9 -10 -20 33 12 -234 43 -359 52 -204 125 -327 294 -501
101 -104 112 -124 42 -81 -43 27 -170 156 -170 172 0 7 -5 9 -10 6 -6 -4 -18
-1 -26 6 -8 6 -17 9 -21 5 -4 -3 36 -47 88 -98 65 -63 83 -85 59 -72 -54 30
-217 192 -263 261 -22 34 -43 61 -45 59 -8 -9 45 -96 106 -174 79 -101 171
-177 277 -228 44 -21 101 -51 128 -66 48 -28 198 -93 252 -109 81 -25 168 -29
254 -15 296 52 544 194 716 411 22 28 42 52 45 55 19 17 109 166 136 225 85
183 108 313 101 550 -11 345 -94 599 -269 821 -108 137 -346 293 -501 329 -98
23 -241 27 -327 9z m-97 -135 c-6 -6 -45 -26 -87 -44 -42 -18 -91 -44 -109
-57 -18 -13 -45 -30 -61 -38 -34 -18 -126 -103 -126 -118 0 -6 -3 -12 -7 -14
-14 -6 -68 -93 -102 -165 -19 -40 -36 -71 -37 -70 -9 8 58 167 80 193 9 11 15
21 14 24 -9 17 94 130 119 130 6 0 13 4 15 8 6 16 137 101 165 108 15 4 33 10
38 14 9 7 92 38 105 40 2 0 -1 -5 -7 -11z m557 -15 c0 -2 -9 0 -20 6 -11 6
-20 13 -20 16 0 2 9 0 20 -6 11 -6 20 -13 20 -16z m100 -46 c0 -5 -9 -4 -20 2
-11 6 -20 12 -20 14 0 2 9 2 20 -1 11 -3 20 -9 20 -15z m-394 -114 c7 -28 1
-109 -11 -136 -5 -14 -2 -18 12 -18 11 0 32 -11 46 -24 14 -13 28 -22 30 -20
6 6 64 -61 82 -95 17 -34 13 -61 -11 -85 -12 -13 -18 -13 -41 -1 -14 8 -29 18
-32 22 -3 5 -22 21 -42 36 -78 59 -201 23 -243 -71 -43 -95 5 -181 153 -278
123 -81 213 -171 254 -254 28 -56 32 -75 32 -141 0 -43 3 -72 7 -66 13 22 18
0 9 -39 -9 -37 -9 -38 -11 -9 -2 22 -4 25 -7 10 -15 -57 -151 -201 -205 -215
l-38 -11 0 -137 0 -137 -32 -14 c-29 -13 -33 -13 -50 9 -22 27 -24 113 -3 150
20 35 19 38 -11 32 -28 -5 -77 16 -68 30 3 4 13 8 23 8 26 0 55 47 61 100 5
45 6 45 82 85 97 51 133 85 148 141 38 133 -40 234 -320 417 -155 101 -205
189 -180 317 15 76 29 107 72 155 50 57 108 86 173 86 30 0 55 2 55 4 0 3 -9
19 -20 37 -40 66 -13 138 52 138 21 0 29 -6 34 -26z m564 -4 c0 -5 -2 -10 -4
-10 -3 0 -8 5 -11 10 -3 6 -1 10 4 10 6 0 11 -4 11 -10z m25 -20 c3 -5 1 -10
-4 -10 -6 0 -11 5 -11 10 0 6 2 10 4 10 3 0 8 -4 11 -10z m-1388 -342 c-3 -8
-6 -5 -6 6 -1 11 2 17 5 13 3 -3 4 -12 1 -19z m708 -48 c-3 -5 -12 -10 -18
-10 -7 0 -6 4 3 10 19 12 23 12 15 0z m-15 -45 c0 -13 10 -34 23 -46 l22 -21
-33 16 c-36 18 -48 37 -38 61 9 24 26 17 26 -10z m-738 -62 c-3 -16 -7 -22
-10 -15 -4 13 4 42 11 42 2 0 2 -12 -1 -27z m-21 -95 c-8 -28 -9 -30 -10 -8
-1 34 12 80 17 58 2 -9 -1 -31 -7 -50z m-121 -118 c0 -5 -4 -10 -10 -10 -5 0
-10 5 -10 10 0 6 5 10 10 10 6 0 10 -4 10 -10z m736 -490 c59 -21 122 -161 83
-185 -15 -10 -52 2 -79 25 -13 11 -32 20 -42 20 -18 0 -18 -1 -2 -17 27 -28
-1 -28 -54 0 -62 33 -67 61 -17 116 20 22 46 42 58 44 12 2 22 5 23 6 1 0 14
-4 30 -9z m428 -73 c-21 -23 -52 -53 -68 -67 -28 -23 -29 -23 -15 -3 28 40
114 128 117 120 2 -4 -13 -27 -34 -50z"/>
<path d="M17084 9380 c-23 -12 -52 -32 -65 -47 -19 -20 -10 -16 40 16 90 58
97 66 25 31z"/>
<path d="M17167 9393 c-4 -3 -7 -11 -7 -17 0 -6 5 -5 12 2 6 6 9 14 7 17 -3 3
-9 2 -12 -2z"/>
<path d="M17305 9351 c-3 -5 -1 -12 5 -16 5 -3 10 1 10 9 0 18 -6 21 -15 7z"/>
<path d="M17180 8254 c0 -9 5 -14 12 -12 18 6 21 28 4 28 -9 0 -16 -7 -16 -16z"/>
<path d="M16918 9893 c7 -3 16 -2 19 1 4 3 -2 6 -13 5 -11 0 -14 -3 -6 -6z"/>
<path d="M5550 9880 c-338 -4 -615 -7 -616 -8 -7 -15 -1 -88 8 -94 15 -9 1957
-11 2141 -1 l127 6 0 43 c0 24 5 45 13 48 6 4 -10 4 -37 1 -27 -3 -80 -5 -117
-5 -38 0 -69 -4 -69 -9 0 -9 24 -14 125 -29 l50 -7 -40 -8 c-22 -4 -64 -7 -92
-7 -29 0 -53 -4 -53 -10 0 -5 -5 -10 -11 -10 -8 0 -10 17 -7 50 l5 50 -406 -2
c-223 -1 -683 -5 -1021 -8z"/>
<path d="M7259 9839 c8 -59 33 -66 29 -8 -2 30 -8 45 -19 47 -13 2 -14 -5 -10
-39z"/>
<path d="M8425 9869 c-522 -3 -951 -7 -952 -8 -2 0 -3 -22 -3 -48 l0 -46 378
7 c207 3 655 7 995 7 l617 1 0 49 0 49 -42 -2 c-24 -1 -470 -5 -993 -9z"/>
<path d="M3046 9853 c-256 -3 -302 -6 -317 -19 -24 -21 -36 -133 -20 -185 21
-71 27 -73 345 -75 574 -3 814 -2 926 5 63 4 124 5 134 2 20 -4 20 -4 0 -13
-10 -4 94 -7 235 -5 l253 3 19 25 c21 27 26 111 9 169 -7 23 -7 36 0 38 15 5
12 16 -9 40 l-18 22 -629 -2 c-346 -2 -764 -4 -928 -5z m92 -50 c-32 -2 -86
-2 -120 0 -35 2 -9 3 57 3 66 0 94 -1 63 -3z m160 0 c-10 -2 -28 -2 -40 0 -13
2 -5 4 17 4 22 1 32 -1 23 -4z m354 -8 c-2 -5 -11 -9 -21 -7 -10 1 -30 -2 -45
-8 -24 -9 -26 -12 -14 -32 6 -13 11 -33 9 -44 -1 -12 4 -24 11 -26 10 -4 12 6
10 43 -4 52 1 58 28 34 10 -9 24 -13 34 -9 14 5 15 9 5 15 -18 11 -6 21 14 13
13 -4 15 -18 13 -65 -2 -33 -6 -62 -9 -66 -4 -3 -28 -8 -54 -10 -70 -7 -88 11
-87 80 2 79 16 99 67 95 23 -2 41 -7 39 -13z m329 -6 c32 -17 13 -27 -43 -23
-29 2 -65 1 -80 -2 -50 -10 -29 -25 35 -24 94 0 97 -1 97 -10 0 -5 -9 -12 -21
-15 -19 -6 -20 -7 -2 -20 10 -7 20 -12 23 -10 3 2 4 -12 2 -32 l-4 -35 -84 4
c-106 4 -118 14 -115 95 1 41 6 62 18 71 21 15 146 16 174 1z m-990 -37 c167
-5 169 -5 163 -26 -3 -12 -10 -25 -14 -29 -4 -5 -67 -5 -139 0 -114 7 -134 6
-141 -7 -7 -13 -12 -11 -34 9 -22 21 -26 22 -32 7 -15 -38 -2 -41 170 -41 134
0 167 -3 171 -14 11 -27 -21 -32 -185 -25 -188 7 -195 10 -187 81 6 53 24 78
44 62 8 -8 76 -14 184 -17z m1558 3 c17 -6 22 -5 17 3 -4 7 -2 12 4 12 30 0
39 -96 13 -129 -18 -22 -20 -22 -280 -15 l-262 7 -7 53 c-3 30 -4 60 -1 68 5
11 47 13 249 12 134 -2 254 -6 267 -11z m-1259 -15 c14 -14 20 -33 20 -65 l0
-45 -42 0 c-24 0 -52 -3 -63 -6 -20 -5 -21 -1 -19 58 1 35 2 66 3 71 2 16 81
7 101 -13z m913 -167 c-7 -2 -21 -2 -30 0 -10 3 -4 5 12 5 17 0 24 -2 18 -5z"/>
<path d="M3626 9711 c-16 -6 -17 -9 -6 -16 8 -5 24 -10 36 -11 21 -2 22 -1 6
17 -9 10 -17 19 -17 18 0 0 -9 -4 -19 -8z"/>
<path d="M3840 9701 c0 -15 32 -22 46 -10 7 6 18 8 24 4 5 -3 10 -1 10 4 0 6
-18 11 -40 11 -22 0 -40 -4 -40 -9z"/>
<path d="M4438 9703 c31 -6 22 -27 -14 -33 -25 -5 -23 -7 20 -13 27 -4 64 -7
82 -7 31 0 34 3 34 30 l0 30 -72 -1 c-40 -1 -63 -4 -50 -6z"/>
<path d="M11060 9759 c-58 -4 -125 -13 -150 -20 -127 -36 -261 -148 -324 -272
-34 -67 -38 -82 -48 -207 -16 -207 -2 -1290 18 -1367 46 -179 209 -326 419
-380 66 -17 186 -18 2195 -18 l2125 0 78 28 c159 56 296 196 325 332 28 130
33 261 33 815 -1 449 -10 642 -37 737 -19 65 -82 148 -177 232 -84 74 -152
107 -245 121 -81 12 -4057 11 -4212 -1z m470 -173 c106 -37 237 -141 297 -239
51 -81 64 -113 56 -134 -3 -10 -2 -15 2 -10 10 9 36 -63 28 -76 -3 -5 -12 3
-19 19 -12 28 -12 28 -13 5 -1 -21 -3 -22 -18 -10 -15 13 -16 11 -10 -13 6
-21 3 -28 -13 -33 -11 -3 -23 -17 -26 -31 -6 -23 -34 -35 -34 -14 0 6 -11 15
-25 20 -14 5 -25 17 -26 27 0 11 -3 13 -6 6 -10 -26 -23 -12 -23 24 0 42 -35
122 -62 141 -10 7 -18 19 -18 25 0 17 -76 88 -125 118 -31 18 -54 23 -105 23
-80 0 -163 -13 -171 -25 -3 -5 -14 -7 -24 -3 -11 5 -16 4 -12 -3 3 -5 -10 -23
-31 -39 -20 -16 -47 -40 -59 -52 -12 -13 -27 -21 -33 -17 -7 4 -10 1 -9 -6 3
-19 -11 -49 -22 -49 -5 0 -9 7 -9 15 0 8 5 15 10 15 15 0 12 39 -4 55 -11 11
-18 9 -45 -16 -18 -16 -38 -29 -44 -29 -9 0 -8 3 1 8 7 5 10 16 6 25 -3 10 -1
17 5 17 6 0 11 7 11 16 0 25 67 100 134 151 70 52 144 88 213 102 59 12 169 6
223 -13z m-260 -301 c-9 -11 -11 -33 -6 -74 8 -68 2 -76 -51 -66 -35 6 -35 7
-29 47 4 22 13 53 21 68 13 25 25 32 69 39 5 0 3 -6 -4 -14z m148 -11 c20 -13
22 -22 19 -79 -4 -64 -18 -95 -43 -95 -12 0 -12 5 1 31 16 30 16 30 -4 19 -12
-6 -21 -15 -21 -20 0 -19 -25 -9 -44 17 -19 26 -26 109 -11 133 10 16 78 12
103 -6z m155 -42 c21 -19 23 -68 1 -76 -30 -12 -55 -6 -79 19 -33 32 -34 82
-2 87 24 4 52 -6 80 -30z m-556 -34 c-3 -8 -6 -5 -6 6 -1 11 2 17 5 13 3 -3 4
-12 1 -19z m910 -115 c-3 -10 -5 -4 -5 12 0 17 2 24 5 18 2 -7 2 -21 0 -30z
m-972 -160 c72 -59 138 -85 200 -81 28 3 59 8 69 13 13 6 17 5 13 -2 -4 -7 13
-13 46 -17 65 -7 130 -1 135 13 2 6 13 11 23 11 13 0 18 -4 13 -11 -9 -15 247
-7 286 8 58 23 80 24 80 6 0 -9 -12 -28 -27 -41 -25 -21 -25 -22 -3 -8 14 9
33 19 42 22 10 4 14 12 11 22 -4 10 -2 14 2 9 9 -8 35 27 62 82 23 47 29 20 8
-35 -23 -61 -59 -100 -117 -130 -45 -23 -69 -27 -119 -22 -8 1 -30 -9 -48 -23
-31 -23 -39 -24 -221 -26 -206 -2 -292 12 -397 63 -98 47 -173 154 -173 245
l0 34 32 -45 c17 -25 54 -64 83 -87z m982 85 c-3 -7 -5 -2 -5 12 0 14 2 19 5
13 2 -7 2 -19 0 -25z m-328 -391 c39 -26 75 -45 80 -43 4 3 16 -1 27 -8 15
-12 16 -16 5 -29 -10 -13 -8 -22 13 -53 19 -29 23 -41 14 -51 -6 -8 -12 -43
-14 -80 -2 -36 -8 -71 -13 -77 -5 -6 -11 -24 -13 -41 -6 -59 -23 -29 -30 55
-4 47 -9 93 -11 102 -3 9 -1 18 5 20 5 2 -1 12 -13 23 -22 20 -22 20 -15 0 4
-10 7 -62 7 -114 0 -93 0 -95 -32 -123 -36 -34 -48 -31 -24 6 9 14 14 30 10
36 -3 5 -2 10 3 10 9 0 7 83 -4 179 -4 38 -12 60 -29 75 -34 31 -149 111 -141
97 5 -8 -14 -11 -68 -11 -118 0 -171 -16 -227 -71 -38 -37 -49 -55 -54 -92
-14 -89 13 -161 88 -238 56 -58 99 -73 189 -66 76 6 141 33 182 74 14 14 26
21 26 15 0 -6 -5 -14 -10 -17 -8 -5 -8 -11 0 -20 7 -8 7 -15 1 -19 -5 -3 -12
-24 -16 -47 -5 -30 -3 -45 9 -58 9 -10 16 -24 16 -31 0 -9 6 -8 20 5 18 16 20
16 20 2 0 -10 -4 -17 -10 -17 -17 0 -11 -33 12 -77 26 -48 37 -53 46 -20 6 22
6 22 12 -3 7 -27 -18 -93 -32 -84 -5 3 -28 36 -53 72 -24 37 -52 75 -62 84
-61 57 -61 57 -74 42 -23 -28 -240 -14 -314 22 -20 9 -37 15 -38 13 -14 -21
-27 -86 -27 -131 0 -50 3 -59 27 -76 40 -29 22 -37 -31 -14 -34 16 -49 29 -61
59 -20 46 -24 151 -8 184 7 13 19 42 28 64 14 36 14 41 0 51 -17 13 -20 34 -5
34 6 0 10 5 10 11 0 5 -4 8 -8 5 -5 -3 -20 -7 -35 -10 -24 -4 -26 -2 -17 14 6
10 14 22 20 25 5 3 8 38 7 78 -1 39 4 93 12 118 19 67 77 138 137 170 50 26
56 27 221 25 l170 -1 72 -48z m178 -99 c24 -27 36 -58 23 -58 -6 0 -13 0 -17
0 -5 0 -8 8 -9 19 -2 29 -14 42 -35 36 -14 -5 -17 -3 -13 9 9 22 27 20 51 -6z
m-34 -377 c5 -24 52 -110 89 -162 6 -9 8 -30 4 -53 -5 -28 -19 -46 -59 -77
-29 -23 -53 -36 -55 -30 -3 8 -16 4 -38 -10 -19 -12 -37 -19 -40 -17 -10 10 8
35 36 51 41 24 100 99 100 127 0 12 -19 60 -42 105 -26 52 -39 88 -35 100 10
24 33 4 40 -34z m-93 30 c0 -6 -4 -13 -10 -16 -5 -3 -10 1 -10 9 0 9 5 16 10
16 6 0 10 -4 10 -9z m3290 -25 c14 -38 2 -63 -33 -70 -35 -6 -2406 -11 -2411
-5 -2 2 -6 25 -9 52 l-7 47 1225 0 1225 0 10 -24z m-3672 -155 c28 -17 -44
-133 -95 -152 -38 -14 -48 0 -20 30 32 34 47 64 47 95 0 30 39 46 68 27z m361
-41 c0 -12 -3 -11 -14 3 -7 11 -11 26 -8 35 6 13 8 13 14 -4 4 -10 8 -26 8
-34z m-469 30 c0 -5 -4 -10 -10 -10 -5 0 -10 5 -10 10 0 6 5 10 10 10 6 0 10
-4 10 -10z m253 -50 c18 0 74 -78 83 -117 11 -43 -39 -83 -83 -66 -19 8 -7 20
27 26 18 4 30 13 30 22 0 17 -16 20 -25 5 -3 -5 -15 -10 -25 -10 -14 0 -23 12
-31 43 -7 23 -19 51 -26 62 -7 11 -13 33 -13 49 l0 29 23 -21 c13 -12 31 -22
40 -22z"/>
<path d="M11030 9381 c0 -6 4 -13 10 -16 6 -3 7 1 4 9 -7 18 -14 21 -14 7z"/>
<path d="M11040 9340 c0 -5 5 -10 10 -10 6 0 10 5 10 10 0 6 -4 10 -10 10 -5
0 -10 -4 -10 -10z"/>
<path d="M11068 8171 c2 -15 12 -33 23 -39 22 -14 24 -6 7 31 -18 37 -35 42
-30 8z"/>
<path d="M11400 7898 c0 -12 3 -18 7 -15 3 4 12 2 20 -5 12 -10 12 -7 2 15
-15 33 -29 35 -29 5z"/>
<path d="M11421 7846 c-9 -11 -7 -15 8 -19 22 -5 31 0 31 20 0 17 -24 17 -39
-1z"/>
<path d="M16535 9670 c-32 -33 -31 -48 0 -22 18 14 40 52 32 52 -2 0 -16 -13
-32 -30z"/>
<path d="M6006 9650 l-1109 -5 0 -37 0 -36 959 -7 c527 -3 1034 -3 1127 1
l167 7 0 31 c0 30 -17 59 -29 54 -4 -2 -505 -5 -1115 -8z m1134 -40 c0 -5 -11
-10 -25 -10 -14 0 -25 5 -25 10 0 6 11 10 25 10 14 0 25 -4 25 -10z"/>
<path d="M8513 9650 c-608 -3 -945 -9 -952 -15 -16 -17 -1 -65 21 -65 10 0 17
4 14 9 -3 5 10 9 29 9 19 0 37 -4 40 -8 3 -4 14 -6 24 -3 10 3 21 1 24 -4 3
-4 89 -7 190 -5 174 3 186 4 192 22 4 13 15 20 32 20 17 0 23 -4 20 -13 -3 -8
-2 -18 1 -23 4 -5 280 -8 669 -6 l661 2 -3 42 c-2 23 -7 42 -11 43 -5 0 -433
-2 -951 -5z m-775 -27 c-16 -2 -40 -2 -55 0 -16 2 -3 4 27 4 30 0 43 -2 28 -4z
m-75 -20 c-7 -2 -21 -2 -30 0 -10 3 -4 5 12 5 17 0 24 -2 18 -5z m75 0 c-10
-2 -28 -2 -40 0 -13 2 -5 4 17 4 22 1 32 -1 23 -4z m1705 0 c-7 -2 -19 -2 -25
0 -7 3 -2 5 12 5 14 0 19 -2 13 -5z"/>
<path d="M2724 9287 c-3 -8 -4 -42 -2 -77 3 -55 6 -65 30 -83 26 -20 44 -20
748 -24 l720 -3 0 95 c0 92 -1 95 -22 96 -13 0 -348 2 -746 5 -618 5 -723 3
-728 -9z m1270 -63 c10 -26 -3 -54 -25 -54 -22 0 -23 7 -6 43 14 31 22 34 31
11z m-289 -20 c-9 -10 -14 -25 -12 -35 4 -15 0 -19 -20 -19 -21 0 -24 4 -21
27 2 19 10 29 28 34 39 11 42 10 25 -7z m-645 -4 c0 -5 -9 -19 -20 -30 -16
-16 -33 -20 -90 -20 l-70 0 0 30 0 30 90 0 c53 0 90 -4 90 -10z m168 -17 c-3
-27 -5 -28 -70 -31 -67 -3 -68 -2 -68 22 0 26 -7 24 118 34 20 2 23 -2 20 -25z
m242 21 c0 -1 -4 -14 -10 -28 -8 -21 -16 -26 -44 -26 -30 0 -35 4 -38 28 l-4
27 -12 -27 c-6 -16 -17 -28 -24 -28 -19 1 -48 25 -48 41 0 11 20 14 90 15 50
1 90 0 90 -2z m132 1 c3 -3 3 -17 0 -30 -6 -35 -52 -36 -52 -2 0 13 3 27 7 30
8 8 37 9 45 2z m156 -12 c-4 -22 -22 -20 -26 1 -2 10 3 16 13 16 10 0 15 -7
13 -17z m132 13 c0 -2 -3 -11 -6 -20 -9 -23 -34 -20 -34 4 0 13 7 20 20 20 11
0 20 -2 20 -4z m240 -16 c0 -22 -51 -42 -58 -22 -2 7 -11 8 -27 2 -18 -7 -25
-5 -29 6 -12 30 -5 34 54 34 53 0 60 -2 60 -20z"/>
<path d="M3000 9180 c0 -5 5 -10 10 -10 6 0 10 5 10 10 0 6 -4 10 -10 10 -5 0
-10 -4 -10 -10z"/>
<path d="M7460 9045 l0 -50 1005 0 c629 1 1008 4 1014 10 6 6 7 28 4 50 l-5
40 -1009 0 -1009 0 0 -50z m123 -2 c-13 -2 -35 -2 -50 0 -16 2 -5 4 22 4 28 0
40 -2 28 -4z"/>
<path d="M16201 8974 c0 -11 3 -14 6 -6 3 7 2 16 -1 19 -3 4 -6 -2 -5 -13z"/>
<path d="M2760 8818 c0 -4 4 -8 9 -8 6 0 12 4 15 8 3 5 -1 9 -9 9 -8 0 -15 -4
-15 -9z"/>
<path d="M2868 8773 c6 -2 9 -10 6 -15 -4 -7 -2 -8 4 -4 18 11 14 26 -5 25
-11 0 -13 -3 -5 -6z"/>
<path d="M2876 8725 c4 -8 8 -15 10 -15 2 0 4 7 4 15 0 8 -4 15 -10 15 -5 0
-7 -7 -4 -15z"/>
<path d="M15761 8494 c0 -11 3 -14 6 -6 3 7 2 16 -1 19 -3 4 -6 -2 -5 -13z"/>
<path d="M15761 8444 c0 -11 3 -14 6 -6 3 7 2 16 -1 19 -3 4 -6 -2 -5 -13z"/>
<path d="M2685 8319 c-156 -26 -288 -152 -323 -307 -16 -72 -15 -225 2 -289
32 -121 108 -220 224 -295 l67 -42 1390 -8 c765 -4 2288 -7 3385 -5 l1995 2
57 28 c73 36 168 127 203 197 23 44 30 74 35 150 l7 95 1 -86 c2 -76 -10 -144
-27 -159 -5 -4 -16 -24 -39 -72 -2 -5 2 -8 7 -8 6 0 11 5 11 10 0 6 9 19 20
30 18 18 21 18 26 5 5 -12 9 -10 20 11 17 33 21 197 7 269 -6 28 -11 41 -12
30 0 -11 -4 -15 -10 -10 -12 14 -23 135 -11 135 17 0 -86 144 -137 192 -28 25
-75 59 -104 75 l-54 28 -2520 6 c-1439 4 -2638 11 -2795 17 -326 13 -1353 13
-1425 1z m1337 -343 c4 -6 8 -21 8 -33 0 -35 -29 -29 -36 7 -14 69 -46 19 -52
-81 -3 -59 -8 -79 -19 -79 -11 0 -13 19 -11 97 3 94 4 97 28 103 31 8 73 1 82
-14z m-1002 -5 c0 -10 7 -42 17 -70 18 -57 13 -73 -15 -48 -25 22 -39 21 -47
-3 -4 -11 -18 -34 -32 -50 -19 -24 -33 -30 -63 -30 -34 0 -39 3 -53 38 -17 42
-9 114 14 137 29 28 76 45 127 45 44 0 52 -3 52 -19z m530 -11 c9 -16 21 -20
65 -20 30 0 55 -4 55 -9 0 -14 -26 -32 -41 -27 -55 17 -69 16 -69 -4 0 -24 27
-37 43 -21 19 19 58 13 64 -9 3 -11 9 -20 14 -20 5 0 9 -18 9 -40 0 -29 -4
-40 -15 -40 -16 0 -18 8 -15 55 1 17 -1 27 -5 23 -4 -4 -16 -3 -27 3 -25 13
-61 -9 -83 -51 -16 -30 -44 -41 -46 -17 -2 23 -5 32 -23 71 -21 48 -15 70 19
63 14 -2 28 0 31 4 3 5 -9 9 -25 9 -24 0 -31 4 -31 19 0 34 63 43 80 11z m210
-3 c0 -7 -6 -19 -12 -27 -11 -12 -10 -12 3 -2 14 11 18 8 23 -20 16 -78 17
-103 3 -122 -23 -31 -47 -14 -47 33 0 22 -7 46 -15 55 -19 19 -19 41 1 71 17
27 44 34 44 12z m332 -19 c-7 -7 -12 -16 -12 -20 0 -14 29 -8 38 8 14 26 52 9
54 -24 2 -47 -3 -76 -18 -99 -18 -28 -50 -32 -39 -5 18 39 18 82 0 88 -26 10
-43 -13 -24 -32 21 -20 13 -70 -7 -53 -10 8 -14 34 -14 84 0 74 6 93 24 75 7
-7 6 -14 -2 -22z m231 -19 c-11 -11 -9 -49 3 -89 8 -25 24 9 24 53 0 26 4 37
15 37 26 0 20 -94 -7 -120 -26 -24 -29 -24 -53 -6 -12 8 -21 33 -26 67 -6 48
-5 56 14 72 23 20 51 7 30 -14z m-1186 -46 c12 -82 8 -103 -21 -103 -48 1 -60
30 -37 96 32 96 44 97 58 7z m277 40 c21 -105 18 -143 -9 -143 -21 0 -25 14
-15 50 5 18 6 38 2 44 -3 6 -5 19 -4 29 4 21 -2 21 -34 0 -25 -16 -25 -17 -6
-24 18 -7 19 -11 10 -43 -13 -41 -35 -47 -63 -16 -13 15 -16 28 -11 57 9 47
40 72 88 73 32 0 37 -3 42 -27z m1129 -24 c7 -54 -4 -89 -28 -89 -20 0 -29 20
-16 33 6 6 11 24 11 39 0 22 -5 28 -21 28 -18 0 -21 -5 -19 -42 4 -62 2 -68
-20 -68 -18 0 -20 7 -20 63 0 36 5 68 12 75 7 7 31 12 54 12 l41 0 6 -51z
m-523 -15 c0 -8 -7 -14 -15 -14 -10 0 -15 10 -15 26 0 22 2 25 15 14 8 -7 15
-19 15 -26z m10 -59 c0 -18 -5 -25 -20 -25 -23 0 -24 4 -10 31 15 27 30 24 30
-6z m-417 0 c-3 -9 -8 -14 -10 -11 -3 3 -2 9 2 15 9 16 15 13 8 -4z"/>
<path d="M2962 7933 c5 -25 28 -28 28 -4 0 12 -6 21 -16 21 -9 0 -14 -7 -12
-17z"/>
<path d="M2867 7933 c-13 -12 -7 -120 6 -132 23 -19 37 9 37 76 0 54 -2 63
-18 63 -10 0 -22 -3 -25 -7z"/>
<path d="M3495 7870 c-3 -5 1 -10 9 -10 9 0 16 5 16 10 0 6 -4 10 -9 10 -6 0
-13 -4 -16 -10z"/>
<path d="M3730 7880 c0 -5 5 -10 11 -10 5 0 7 5 4 10 -3 6 -8 10 -11 10 -2 0
-4 -4 -4 -10z"/>
<path d="M16276 8020 c10 -16 24 -32 31 -35 8 -2 2 11 -13 30 -32 43 -41 45
-18 5z"/>
<path d="M9731 7985 c0 -14 28 -50 34 -43 3 3 -3 16 -14 29 -11 13 -20 20 -20
14z"/>
<path d="M16610 7634 c0 -8 32 -33 43 -34 5 0 5 4 2 10 -8 13 -45 33 -45 24z"/>
<path d="M16750 7561 c39 -23 50 -25 50 -12 0 9 -18 16 -65 27 -11 3 -4 -4 15
-15z"/>
<path d="M9613 7468 c-17 -18 -41 -41 -54 -50 -13 -10 -18 -18 -12 -18 17 0
72 45 102 83 24 30 -5 18 -36 -15z"/>
<path d="M2870 7019 c-52 -3 -102 -9 -110 -13 -29 -13 -49 -54 -59 -117 -18
-115 14 -191 84 -203 17 -3 460 -8 987 -11 1051 -7 1054 -7 1108 48 29 30 30
34 30 127 0 54 -5 111 -11 129 -9 27 -16 31 -47 32 -21 0 -350 3 -732 5 -382
2 -798 5 -925 7 -126 1 -273 -1 -325 -4z m-91 -60 c-16 -10 -23 -4 -14 10 3 6
11 8 17 5 6 -4 5 -9 -3 -15z m509 1 l52 0 0 -32 c0 -55 -10 -76 -31 -71 -16 4
-19 0 -19 -27 0 -30 2 -32 30 -28 17 3 30 1 30 -3 0 -5 8 -6 18 -3 15 5 15 4
-1 -6 -14 -9 -16 -15 -6 -26 18 -22 5 -26 -27 -9 -17 9 -56 15 -96 15 l-68 0
-1 53 c-2 131 5 153 46 142 11 -2 44 -5 73 -5z m1485 -1 c-7 -7 -24 -8 -54 -1
l-44 10 55 1 c39 1 51 -2 43 -10z m-1955 -21 c6 -6 20 -13 29 -14 10 -1 52 -9
93 -18 41 -9 91 -16 110 -16 67 0 105 -21 60 -33 -20 -5 -29 -37 -10 -37 6 0
10 -9 10 -20 0 -14 -7 -20 -22 -20 -13 0 -88 -2 -167 -3 -148 -3 -170 3 -141
38 7 9 9 26 5 45 -4 16 -3 30 2 30 16 0 33 -24 33 -47 0 -27 3 -28 31 -10 17
10 22 9 30 -5 6 -10 14 -18 19 -18 15 0 12 40 -2 41 -34 2 -51 9 -65 28 -8 12
-20 21 -28 21 -18 0 -28 17 -21 35 7 18 18 19 34 3z m893 -18 c-1 -8 -5 -41
-8 -72 -5 -49 -3 -58 10 -58 22 0 31 18 18 34 -12 15 -10 74 4 96 8 13 99 10
113 -4 9 -10 9 -106 0 -128 -6 -15 -21 -18 -92 -18 -102 0 -111 9 -102 98 3
32 5 61 5 65 1 5 13 7 29 5 18 -2 26 -8 23 -18z m543 -5 c31 -33 38 -82 18
-117 -15 -26 -21 -28 -79 -28 l-63 0 0 79 c0 87 0 87 68 90 23 1 40 -6 56 -24z
m178 15 c46 0 65 -24 75 -95 8 -61 -8 -75 -88 -75 -71 0 -89 19 -89 93 0 63
15 91 43 83 12 -3 39 -6 59 -6z m253 -7 c12 -11 19 -13 24 -5 4 7 19 4 46 -11
48 -27 68 -80 45 -122 -16 -30 -46 -40 -118 -39 -71 2 -92 21 -92 86 0 57 13
86 43 98 31 12 34 12 52 -7z m-1217 -1 c11 -7 12 -65 2 -107 -5 -22 1 -26 16
-10 18 17 27 82 12 91 -4 3 -8 12 -8 20 0 10 12 14 39 14 l38 0 7 -52 c13
-110 14 -108 -53 -108 -33 0 -63 5 -66 10 -10 16 -25 2 -25 -22 0 -12 -3 -18
-7 -14 -12 11 -3 170 10 178 15 10 19 10 35 0z m582 -2 c17 -11 19 -115 3
-131 -16 -16 -109 -23 -118 -9 -4 7 -10 44 -13 81 l-5 69 59 0 c33 0 66 -5 74
-10z m-1304 -86 c4 -51 2 -66 -6 -58 -13 13 -22 91 -14 117 9 30 15 13 20 -59z
m215 -103 c89 0 164 -3 167 -6 3 -3 -78 -5 -180 -5 -150 0 -188 3 -198 15 -10
12 -7 13 19 5 17 -5 103 -9 192 -9z m618 -7 c3 -4 -9 -4 -28 0 -18 3 -42 6
-52 6 -11 0 -19 4 -19 9 0 9 89 -5 99 -15z m-259 6 c-20 -13 -160 -13 -160 0
0 6 36 10 88 10 60 0 82 -3 72 -10z m713 3 c-7 -2 -19 -2 -25 0 -7 3 -2 5 12
5 14 0 19 -2 13 -5z m484 -9 c-3 -3 -12 -4 -19 -1 -8 3 -5 6 6 6 11 1 17 -2
13 -5z"/>
<path d="M3208 6903 c7 -3 16 -2 19 1 4 3 -2 6 -13 5 -11 0 -14 -3 -6 -6z"/>
<path d="M3284 6885 c8 -8 17 -15 20 -15 3 0 6 7 6 15 0 9 -9 15 -21 15 -18 0
-19 -2 -5 -15z"/>
<path d="M3200 6851 c0 -31 63 -44 74 -15 4 10 1 14 -6 12 -7 -3 -19 1 -26 9
-19 19 -42 16 -42 -6z"/>
<path d="M3770 6880 c0 -5 5 -10 11 -10 5 0 7 5 4 10 -3 6 -8 10 -11 10 -2 0
-4 -4 -4 -10z"/>
<path d="M3786 6835 c-11 -8 -15 -15 -9 -15 19 0 43 12 43 21 0 13 -12 11 -34
-6z"/>
<path d="M4386 6853 c8 -26 19 -52 24 -57 16 -16 24 3 12 29 -16 34 -15 62 1
68 6 3 -2 6 -20 6 l-31 1 14 -47z"/>
<path d="M4714 6848 c1 -48 -1 -53 -21 -53 -32 -1 -41 -15 -19 -31 42 -30 73
-6 74 58 1 54 -6 78 -22 78 -10 0 -13 -15 -12 -52z"/>
<path d="M4654 6875 c19 -14 16 -45 -4 -45 -6 0 -8 -4 -5 -10 3 -5 13 -10 21
-10 10 0 14 12 14 40 0 35 -3 40 -22 40 -22 -1 -22 -1 -4 -15z"/>
<path d="M10907 6786 c-28 -22 -37 -71 -37 -207 0 -112 2 -127 20 -147 12 -12
28 -22 37 -22 27 0 82 49 99 88 33 78 10 267 -36 292 -26 14 -61 12 -83 -4z
m53 -16 c26 -14 42 -78 44 -171 1 -85 -11 -117 -53 -142 -51 -30 -51 -31 -32
311 1 15 16 15 41 2z"/>
<path d="M11091 6608 c1 -119 6 -186 13 -190 16 -11 56 -10 56 2 0 6 -6 10
-14 10 -23 0 -30 55 -28 213 2 128 0 147 -13 147 -14 0 -16 -22 -14 -182z"/>
<path d="M11160 6785 c0 -4 8 -13 17 -20 23 -17 22 -159 -1 -203 -9 -17 -16
-37 -16 -44 1 -19 37 -64 46 -55 10 9 24 300 15 309 -10 10 -61 21 -61 13z"/>
<path d="M11286 6778 c-3 -7 -7 -93 -10 -190 -4 -140 -2 -178 8 -178 9 0 12
20 12 69 0 49 5 73 16 84 14 15 16 13 22 -15 3 -17 6 -49 6 -72 0 -58 10 -70
53 -62 19 4 38 13 40 21 8 20 2 273 -8 313 -8 34 -19 41 -28 19 -7 -19 12
-107 24 -107 5 0 8 -18 7 -40 -2 -53 -13 -51 -29 8 -10 37 -13 42 -17 23 -2
-13 3 -50 12 -82 20 -70 18 -141 -4 -137 -21 4 -41 66 -35 112 4 28 1 41 -10
50 -20 14 -23 32 -24 124 -1 58 -4 72 -16 72 -9 0 -17 -6 -19 -12z"/>
<path d="M11455 6780 c-8 -13 54 -50 73 -42 11 4 14 1 9 -10 -8 -23 -12 -262
-3 -266 19 -9 25 10 27 83 1 44 8 92 15 106 19 39 12 123 -10 127 -10 2 -23
-1 -28 -6 -6 -6 -19 -5 -36 4 -32 17 -39 17 -47 4z"/>
<path d="M13620 6633 c-72 -5 -150 -24 -189 -45 -145 -81 -234 -192 -262 -329
-8 -39 -11 -499 -9 -1637 2 -1724 -1 -1642 57 -1742 54 -91 190 -206 267 -226
14 -3 29 -10 32 -15 3 -5 16 -9 29 -9 13 0 36 -11 51 -25 31 -29 39 -31 31
-10 -10 24 9 26 37 4 30 -24 46 -19 25 7 -13 16 -11 17 16 10 17 -4 37 -14 46
-22 20 -18 49 -20 31 -2 -33 33 1 37 52 7 20 -12 36 -16 36 -10 0 5 -8 15 -17
20 -24 14 0 14 47 1 25 -7 36 -7 42 3 6 8 10 9 16 1 4 -6 17 -17 30 -23 22
-12 23 -11 12 10 -11 20 -10 21 6 15 33 -13 176 -17 190 -5 8 7 19 7 31 1 17
-9 192 -8 408 2 50 2 113 -1 140 -6 46 -10 204 -13 420 -9 50 1 572 2 1160 2
1115 -1 1284 4 1377 39 157 59 325 227 366 368 28 93 32 313 31 1702 0 1566 3
1498 -59 1620 -45 90 -184 226 -277 272 l-68 33 -2030 1 c-1116 0 -2050 -1
-2075 -3z m369 -443 c6 -21 16 -42 21 -45 12 -7 46 -80 55 -118 4 -15 11 -27
16 -27 12 0 11 -27 -1 -35 -17 -10 -69 24 -86 57 l-16 31 -38 -41 c-45 -47
-77 -61 -86 -37 -8 19 15 95 27 95 13 0 35 50 44 95 13 74 45 87 64 25z m-162
3 c4 -11 -1 -22 -15 -31 -17 -11 -22 -24 -22 -61 0 -25 4 -62 9 -81 10 -46 5
-60 -25 -60 -22 0 -24 4 -24 54 0 94 -11 146 -30 146 -16 0 -17 -11 -16 -97 1
-85 -1 -98 -16 -101 -16 -3 -18 7 -18 96 l0 99 -42 -8 c-67 -13 -70 -12 -66
19 3 23 9 28 43 33 22 3 80 7 128 8 74 1 89 -2 94 -16z m451 -180 c16 -29 15
-53 -2 -53 -8 0 -35 16 -60 35 -26 19 -48 35 -51 35 -3 0 -5 -13 -5 -30 0 -25
-4 -30 -24 -30 -35 0 -39 25 -25 136 11 94 12 95 38 92 22 -3 27 -9 31 -43 7
-52 19 -73 31 -54 5 8 9 27 9 42 0 16 6 38 12 50 11 19 14 11 23 -68 6 -49 16
-100 23 -112z m206 160 c-1 -18 2 -33 6 -33 5 0 8 -28 7 -62 -2 -58 0 -63 18
-60 11 2 24 8 29 13 14 13 7 108 -10 140 -19 38 -18 41 14 37 26 -3 27 -6 32
-68 4 -58 6 -61 13 -31 4 18 7 44 7 57 0 16 7 25 23 29 27 6 83 9 120 7 l27
-2 0 -94 c0 -53 4 -98 10 -101 6 -3 10 -13 10 -21 0 -11 -15 -14 -64 -14 -58
0 -64 2 -59 19 2 10 12 18 21 17 14 -1 17 9 18 54 0 31 4 68 8 83 4 19 3 27
-7 27 -30 0 -50 -40 -60 -119 l-11 -80 -55 -7 c-46 -6 -56 -4 -67 11 -11 14
-16 16 -28 6 -8 -7 -44 -13 -80 -14 -74 -2 -98 11 -79 42 13 20 20 127 10 138
-9 8 -9 48 0 57 4 4 39 5 78 4 l70 -3 -1 -32z m431 12 c0 -14 -6 -19 -20 -17
-12 1 -31 -7 -43 -18 -23 -21 -29 -40 -13 -40 5 0 7 -9 4 -19 -3 -10 2 -32 11
-47 14 -26 15 -27 16 -7 1 55 47 31 57 -30 4 -29 2 -38 -12 -43 -10 -4 -27 -1
-38 6 -15 9 -22 10 -25 1 -2 -6 -12 -11 -22 -11 -15 0 -18 9 -18 66 0 37 -3
88 -7 114 -8 57 7 71 70 67 33 -2 40 -6 40 -22z m262 -87 c7 -84 7 -116 -2
-126 -17 -19 -42 -5 -54 30 -15 41 -14 60 4 94 8 16 15 41 15 56 0 31 9 58 20
58 4 0 12 -51 17 -112z m218 85 c-4 -16 -7 -32 -7 -38 9 -162 9 -175 -3 -185
-15 -12 -65 3 -65 20 0 5 -7 10 -15 10 -9 0 -18 7 -21 15 -9 24 -33 18 -40
-10 -6 -26 -29 -34 -36 -12 -2 6 -2 58 0 115 l4 102 28 0 c27 0 28 -2 27 -49
-2 -49 22 -99 51 -109 23 -7 25 29 4 58 -51 68 -35 110 41 110 38 0 39 -1 32
-27z m-365 2 c7 -8 16 -38 20 -67 l8 -53 1 43 c2 61 16 85 42 71 16 -8 19 -17
14 -42 -4 -18 -15 -39 -26 -49 -16 -13 -17 -21 -9 -43 23 -61 5 -109 -25 -68
-11 15 -16 16 -38 4 -47 -25 -52 -13 -50 105 1 60 2 110 2 112 3 9 51 -1 61
-13z m510 5 c0 -5 -7 -10 -15 -10 -25 0 -28 -26 -7 -57 11 -15 23 -52 26 -82
6 -59 9 -66 25 -56 14 8 14 85 0 85 -6 0 -9 10 -7 23 3 25 27 30 38 7 22 -41
40 -124 30 -134 -11 -11 -196 -14 -206 -4 -3 4 -4 23 -2 44 l3 39 23 -25 c23
-25 24 -25 38 -5 14 18 13 22 -12 41 -17 14 -27 33 -29 53 -1 17 -5 34 -9 38
-3 3 -6 17 -6 30 0 21 4 23 55 23 30 0 55 -4 55 -10z m100 -5 c0 -23 -58 -49
-76 -34 -21 17 -17 37 9 42 47 9 67 7 67 -8z m-1759 -36 c-6 -16 -10 -18 -10
-7 -1 22 12 55 16 42 2 -6 -1 -22 -6 -35z m3515 -553 c17 -24 17 -28 0 -52
-14 -18 -40 -19 -963 -26 -521 -3 -956 -4 -965 -1 -14 3 -18 15 -18 54 l0 49
966 -2 c943 -3 966 -3 980 -22z m-2823 -18 c-10 -5 7 -6 40 -4 43 3 57 1 57
-9 0 -7 -7 -15 -14 -18 -10 -4 -13 -1 -10 7 4 11 -4 11 -41 3 -31 -7 -42 -13
-33 -19 9 -7 7 -8 -7 -5 -55 13 -74 14 -115 7 l-45 -7 50 -4 c28 -2 -119 -6
-325 -9 -206 -3 -383 -3 -393 -1 -19 4 -33 43 -22 61 5 9 124 11 441 9 239 -2
426 -7 417 -11z m2207 -529 c272 -1 476 -5 453 -8 -57 -10 -65 -20 -11 -15 30
3 37 2 23 -4 l-20 -9 20 -5 c11 -3 36 -6 55 -7 19 -1 37 -6 38 -11 5 -14 18
-12 36 6 14 14 16 14 16 0 0 -38 -15 -38 -1002 -35 l-959 4 3 40 3 40 205 5
c113 3 304 4 425 3 121 -1 443 -3 715 -4z m578 -13 c2 -2 -17 -5 -41 -7 -33
-3 -43 -1 -39 9 3 9 16 11 40 7 20 -3 37 -7 40 -9z m17 -360 c17 -12 3 -14
-110 -15 -71 -1 -131 -4 -134 -6 -2 -3 36 -5 85 -5 49 0 104 -4 122 -9 22 -7
30 -6 26 1 -4 6 -1 9 6 6 22 -7 23 -26 3 -36 -22 -12 -1912 -20 -1930 -9 -14
9 -18 69 -6 80 3 4 437 7 963 7 802 0 959 -2 975 -14z m-2802 -3 c87 -6 87 -6
87 -33 0 -15 -6 -32 -13 -39 -9 -7 -149 -11 -448 -12 -535 -2 -485 -5 -493 27
-4 14 -4 35 -1 45 7 20 16 20 393 19 213 -1 426 -4 475 -7z m2732 -371 c24 -5
-22 -7 -115 -7 -277 0 -1515 -17 -1519 -21 -2 -2 126 -4 285 -4 190 0 284 -4
274 -10 -9 -6 -10 -10 -3 -10 6 0 14 4 17 9 3 5 20 7 38 4 49 -6 146 -6 203 0
36 5 42 4 20 -2 l-30 -9 35 -2 c19 -2 109 -4 200 -5 213 -3 225 -4 217 -12 -8
-7 -168 -9 -1914 -19 l-1292 -7 -11 29 c-20 51 -6 58 121 65 172 8 3428 9
3474 1z m-235 -68 c0 -2 -19 -3 -42 -3 -39 1 -41 2 -13 8 28 7 55 4 55 -5z
m47 10 c-3 -3 -12 -4 -19 -1 -8 3 -5 6 6 6 11 1 17 -2 13 -5z m-372 -304 c-33
-4 -302 -8 -598 -9 -378 -1 -536 -4 -532 -12 4 -6 19 -10 33 -9 15 1 41 1 57
0 26 -1 27 -3 10 -10 -17 -7 -15 -9 12 -9 17 -1 33 3 35 9 2 6 74 6 203 -1
110 -5 430 -9 710 -8 603 2 598 2 590 -11 -3 -5 -1 -10 4 -10 6 0 11 4 11 8 0
10 58 3 65 -8 17 -28 -81 -31 -988 -27 -508 2 -929 7 -935 11 -6 4 -9 12 -7
19 2 7 6 24 9 39 l6 27 113 4 c235 6 1259 4 1202 -3z m310 1 c-66 -3 -136 -3
-155 0 -19 4 35 6 120 6 l155 -1 -120 -5z m-2398 -37 c12 -19 11 -24 -6 -45
l-19 -24 -434 -5 c-238 -3 -446 -4 -461 -1 -26 3 -28 6 -25 45 l3 41 80 6 c44
3 253 5 464 5 379 -1 384 -1 398 -22z m2733 -38 c0 -3 -4 -8 -10 -11 -5 -3
-10 -1 -10 4 0 6 5 11 10 11 6 0 10 -2 10 -4z m-2866 -305 c3 -5 14 -8 24 -6
66 13 92 13 92 -1 0 -8 -4 -14 -9 -14 -5 0 -7 -9 -4 -20 3 -12 0 -22 -8 -25
-8 -2 -209 -6 -447 -8 -465 -4 -461 -4 -448 47 5 20 14 26 44 29 80 8 751 7
756 -2z m2115 -6 c2 -3 -16 -6 -40 -6 -27 -1 2 -8 76 -18 66 -9 122 -13 123
-8 5 10 66 9 77 -2 6 -5 100 -12 210 -15 182 -5 273 -10 300 -15 6 -1 1 -6
-10 -11 -22 -10 -1914 -13 -1939 -4 -19 7 -22 64 -3 83 9 9 137 11 606 6 327
-3 597 -8 600 -10z m309 8 c-10 -2 -26 -2 -35 0 -10 3 -2 5 17 5 19 0 27 -2
18 -5z m-133 -13 c12 -5 -1 -6 -35 -3 -30 3 -57 7 -59 9 -9 8 75 2 94 -6z
m-3045 -350 c-10 -6 7 -10 55 -13 l70 -3 -72 -2 c-49 -1 -73 2 -76 11 -4 9 -8
8 -16 -3 -6 -8 -11 -10 -11 -4 0 17 11 24 39 24 20 0 23 -2 11 -10z m173 3
c-7 -2 -19 -2 -25 0 -7 3 -2 5 12 5 14 0 19 -2 13 -5z m154 1 c-3 -3 -12 -4
-19 -1 -8 3 -5 6 6 6 11 1 17 -2 13 -5z m3228 -4 c17 -7 16 -9 -10 -9 -476 -7
-732 -10 -869 -10 -93 -1 -167 -4 -163 -7 5 -5 140 -9 535 -13 78 0 142 -5
142 -10 0 -15 -272 -22 -910 -24 l-615 -1 -3 28 c-7 60 -77 56 940 55 513 0
942 -4 953 -9z m64 -45 l0 -20 -9 20 c-5 11 -9 27 -9 35 -1 13 0 13 9 0 5 -8
9 -24 9 -35z m-3306 28 c-29 -2 -78 -2 -110 0 -32 2 -8 3 52 3 61 0 87 -1 58
-3z m2927 -23 c0 -5 -4 -10 -10 -10 -5 0 -10 5 -10 10 0 6 5 10 10 10 6 0 10
-4 10 -10z m190 -10 c0 -5 -15 -10 -32 -10 -18 0 -43 -3 -55 -6 -13 -4 -23 -2
-23 4 0 13 23 19 73 21 20 0 37 -3 37 -9z m-3300 -9 c37 -7 27 -9 -57 -10 -58
0 -104 3 -108 9 -7 12 99 12 165 1z m215 -6 c6 -2 -30 -3 -80 -3 -55 0 -78 3
-60 7 28 6 117 4 140 -4z m2898 -2 c-7 -2 -19 -2 -25 0 -7 3 -2 5 12 5 14 0
19 -2 13 -5z"/>
<path d="M14365 6159 c-11 -17 1 -21 15 -4 8 9 8 15 2 15 -6 0 -14 -5 -17 -11z"/>
<path d="M14411 6136 c-7 -8 -13 -34 -14 -58 -2 -42 -1 -43 31 -46 30 -3 32
-1 32 26 0 16 3 44 6 61 6 28 4 31 -19 31 -13 0 -30 -6 -36 -14z"/>
<path d="M13778 5543 c12 -2 32 -2 45 0 12 2 2 4 -23 4 -25 0 -35 -2 -22 -4z"/>
<path d="M13953 5543 c9 -2 25 -2 35 0 9 3 1 5 -18 5 -19 0 -27 -2 -17 -5z"/>
<path d="M14205 5540 c-12 -5 22 -9 89 -9 60 -1 107 1 104 4 -9 9 -173 13
-193 5z"/>
<path d="M16818 5013 c12 -2 32 -2 45 0 12 2 2 4 -23 4 -25 0 -35 -2 -22 -4z"/>
<path d="M15488 4273 c6 -2 18 -2 25 0 6 3 1 5 -13 5 -14 0 -19 -2 -12 -5z"/>
<path d="M15462 3910 c-12 -19 -10 -20 40 -19 38 0 47 3 33 9 -21 8 -21 8 50
23 11 3 -9 5 -45 6 -55 1 -67 -2 -78 -19z m48 0 c0 -5 -4 -10 -10 -10 -5 0
-10 5 -10 10 0 6 5 10 10 10 6 0 10 -4 10 -10z"/>
<path d="M14570 3538 c-21 -9 -22 -12 -7 -15 23 -6 47 3 47 17 0 12 -8 12 -40
-2z"/>
<path d="M16358 3543 c23 -2 61 -2 85 0 23 2 4 4 -43 4 -47 0 -66 -2 -42 -4z"/>
<path d="M15548 3173 c6 -2 18 -2 25 0 6 3 1 5 -13 5 -14 0 -19 -2 -12 -5z"/>
<path d="M15688 3173 c7 -3 16 -2 19 1 4 3 -2 6 -13 5 -11 0 -14 -3 -6 -6z"/>
<path d="M15873 3173 c71 -2 183 -2 250 0 67 1 10 3 -128 3 -137 0 -192 -2
-122 -3z"/>
<path d="M9234 6440 c5 -8 15 -22 23 -31 7 -8 18 -53 25 -99 20 -145 -20 -258
-118 -333 -81 -62 -146 -68 -236 -21 -35 18 -36 5 -3 -26 22 -20 35 -24 94
-23 55 0 78 6 120 28 28 16 51 33 51 39 0 6 10 16 22 21 14 6 37 39 58 82 19
39 40 72 47 72 8 1 11 28 9 90 -1 49 2 87 6 85 18 -12 6 17 -24 57 -34 43 -91
89 -74 59z"/>
<path d="M11520 6429 c0 -5 5 -7 10 -4 6 3 10 8 10 11 0 2 -4 4 -10 4 -5 0
-10 -5 -10 -11z"/>
<path d="M11185 6420 c-4 -6 5 -10 20 -10 15 0 24 4 20 10 -3 6 -12 10 -20 10
-8 0 -17 -4 -20 -10z"/>
<path d="M11528 6403 c6 -2 18 -2 25 0 6 3 1 5 -13 5 -14 0 -19 -2 -12 -5z"/>
<path d="M9340 6305 c0 -16 26 -84 35 -92 15 -14 -4 70 -20 86 -8 8 -15 11
-15 6z"/>
<path d="M10830 6159 l0 -54 540 -1 539 0 0 50 -1 51 -539 4 -539 4 0 -54z"/>
<path d="M12075 6200 c-3 -5 -2 -10 4 -10 5 0 13 5 16 10 3 6 2 10 -4 10 -5 0
-13 -4 -16 -10z"/>
<path d="M6610 6179 c0 -5 5 -7 10 -4 6 3 10 8 10 11 0 2 -4 4 -10 4 -5 0 -10
-5 -10 -11z"/>
<path d="M2843 6173 c-66 -4 -74 -6 -97 -34 -33 -39 -41 -89 -27 -155 11 -50
15 -54 49 -64 23 -6 208 -10 479 -10 378 0 444 2 456 15 18 17 32 130 24 183
-12 74 -3 72 -431 70 -209 -1 -413 -4 -453 -5z m-57 -62 c-10 -11 -19 -38 -20
-61 -2 -23 -8 -46 -13 -51 -6 -6 -7 12 -3 47 4 39 12 61 25 70 26 20 31 17 11
-5z m504 9 c0 -5 -6 -10 -14 -10 -23 0 -30 -20 -16 -46 10 -18 16 -21 27 -13
7 6 13 20 13 31 0 11 5 16 11 13 6 -4 13 2 16 14 5 21 18 27 26 14 5 -8 176
-8 184 0 2 3 15 0 29 -7 29 -13 36 -36 32 -97 l-3 -44 -145 -1 c-148 -1 -165
3 -154 37 3 13 -4 18 -30 21 -32 4 -34 2 -21 -12 8 -9 15 -24 15 -34 0 -16
-10 -17 -82 -15 -46 2 -91 -1 -100 -5 -13 -6 -25 0 -45 22 -15 16 -39 33 -53
37 l-25 7 23 -17 c12 -9 22 -23 22 -32 0 -13 -9 -15 -52 -10 -32 4 -57 2 -65
-4 -9 -8 -17 -8 -27 0 -11 9 -19 9 -35 -1 -26 -16 -28 -13 -23 49 4 48 5 51
35 57 18 3 70 3 115 1 46 -3 92 0 102 5 9 5 21 6 25 2 3 -4 33 -8 66 -8 32 -1
66 -7 74 -14 20 -17 27 -8 20 22 l-6 24 -206 0 c-157 -1 -207 2 -210 12 -4 9
48 12 236 12 154 0 241 -4 241 -10z"/>
<path d="M3540 6086 c0 -17 14 -29 23 -20 8 8 -3 34 -14 34 -5 0 -9 -6 -9 -14z"/>
<path d="M3311 6054 c0 -11 3 -14 6 -6 3 7 2 16 -1 19 -3 4 -6 -2 -5 -13z"/>
<path d="M2840 6021 c13 -25 33 -28 28 -4 -2 10 -11 19 -21 21 -16 3 -17 1 -7
-17z"/>
<path d="M2895 6030 c3 -5 11 -10 16 -10 6 0 7 5 4 10 -3 6 -11 10 -16 10 -6
0 -7 -4 -4 -10z"/>
<path d="M3130 6031 c0 -14 28 -33 39 -27 16 10 1 36 -20 36 -10 0 -19 -4 -19
-9z"/>
<path d="M3070 6020 c0 -5 5 -10 10 -10 6 0 10 5 10 10 0 6 -4 10 -10 10 -5 0
-10 -4 -10 -10z"/>
<path d="M3313 6011 c0 -11 5 -17 9 -15 11 7 10 34 -1 34 -6 0 -9 -9 -8 -19z"/>
<path d="M3536 6014 c-8 -22 -8 -24 8 -24 7 0 16 9 19 20 6 24 -18 28 -27 4z"/>
<path d="M5018 6173 c7 -3 16 -2 19 1 4 3 -2 6 -13 5 -11 0 -14 -3 -6 -6z"/>
<path d="M8138 6152 c-10 -2 -18 -5 -18 -7 0 -1 14 -33 31 -70 30 -63 31 -72
26 -149 -9 -120 -56 -238 -129 -321 -96 -109 -251 -137 -383 -68 -29 15 -29
14 9 -25 33 -35 47 -42 95 -49 78 -11 92 -8 186 43 94 49 119 57 62 19 -20
-14 -37 -29 -37 -34 0 -5 -20 -14 -45 -21 -27 -8 -45 -18 -45 -27 0 -9 6 -13
14 -10 8 3 17 1 20 -6 3 -9 5 -9 5 0 1 7 7 10 15 7 45 -17 231 128 276 217 22
42 38 130 39 214 1 72 -39 237 -55 231 -7 -3 -10 3 -7 15 4 12 -1 21 -13 26
-11 3 -21 9 -24 13 -3 3 -13 4 -22 2z"/>
<path d="M9047 6099 c-10 -6 -25 -8 -34 -5 -13 5 -14 4 -3 -9 17 -20 33 -19
48 5 14 23 14 23 -11 9z"/>
<path d="M10858 5933 c7 -3 16 -2 19 1 4 3 -2 6 -13 5 -11 0 -14 -3 -6 -6z"/>
<path d="M12530 5688 c0 -36 11 -31 15 7 2 14 -1 25 -6 25 -5 0 -9 -14 -9 -32z"/>
<path d="M4991 5693 c0 -5 4 -17 9 -28 8 -18 9 -17 9 8 1 15 -3 27 -9 27 -5 0
-10 -3 -9 -7z"/>
<path d="M6412 5680 c0 -14 2 -19 5 -12 2 6 2 18 0 25 -3 6 -5 1 -5 -13z"/>
<path d="M2743 5644 c-33 -14 -36 -155 -4 -187 9 -9 192 -12 699 -14 378 -1
735 -2 795 -4 59 -1 110 0 113 3 3 4 5 43 5 89 0 61 -5 87 -16 98 -14 14 -104
16 -798 18 -430 1 -788 -1 -794 -3z m1022 -101 c1 -35 -3 -42 -22 -46 -22 -4
-23 -1 -21 45 2 43 5 48 23 46 16 -2 20 -11 20 -45z m412 16 c-16 -26 -24 -24
-24 5 0 18 4 22 18 19 15 -4 16 -8 6 -24z m-812 10 c4 -6 -3 -13 -15 -16 -15
-4 -20 -12 -18 -29 2 -13 0 -23 -4 -24 -51 -3 -56 0 -60 35 -3 29 -1 35 14 35
14 0 18 -8 19 -32 0 -28 2 -30 9 -13 5 11 11 28 14 38 6 19 31 23 41 6z m215
-35 c0 -47 0 -47 -24 -38 -11 4 -14 14 -10 29 4 17 0 24 -16 28 -14 4 -20 1
-17 -6 20 -53 19 -59 -5 -55 -12 2 -24 10 -24 18 -1 8 -2 23 -3 33 -2 26 -21
10 -21 -17 0 -16 -7 -26 -22 -30 -50 -13 -58 -8 -58 32 0 21 3 42 6 45 4 3 49
6 100 6 l94 0 0 -45z m61 34 c8 -65 6 -78 -8 -78 -12 0 -14 7 -9 35 6 31 4 37
-16 45 -22 9 -22 9 5 9 15 1 28 -5 28 -11z m47 1 c-2 -6 -8 -10 -13 -10 -5 0
-11 4 -13 10 -2 6 4 11 13 11 9 0 15 -5 13 -11z m437 1 c3 -5 -3 -10 -14 -10
-17 0 -21 -6 -21 -35 0 -19 -3 -34 -7 -33 -5 1 -19 -2 -32 -6 -34 -12 -47 7
-21 32 16 15 20 25 13 37 -15 27 -23 23 -44 -22 -13 -30 -26 -43 -39 -43 -23
0 -27 28 -5 36 18 7 20 34 2 34 -26 0 -55 -29 -50 -50 5 -17 0 -20 -28 -20
-51 0 -65 13 -53 47 6 19 18 29 34 31 20 3 23 1 13 -9 -7 -7 -13 -19 -13 -26
0 -18 20 -16 25 2 3 8 7 21 9 28 4 15 222 22 231 7z m-1235 -24 c-5 -15 -5
-27 3 -35 8 -8 5 -11 -11 -11 -18 0 -22 6 -22 35 0 28 4 35 20 35 16 0 18 -4
10 -24z m352 12 c-7 -7 -12 -22 -12 -35 0 -14 -6 -23 -15 -23 -21 0 -31 30
-14 41 9 5 -14 9 -62 9 -72 0 -76 -1 -75 -22 1 -20 -5 -23 -38 -26 -37 -3 -38
-2 -32 23 5 20 3 26 -6 22 -7 -2 -13 -14 -12 -26 0 -17 -5 -21 -33 -21 -36 0
-39 6 -21 45 l11 25 161 0 c124 0 157 -3 148 -12z m888 -28 c0 -11 7 -20 15
-20 8 0 15 -5 15 -11 0 -6 -10 -9 -22 -7 -17 2 -24 11 -26 31 -2 15 1 27 7 27
6 0 11 -9 11 -20z m-977 -10 c4 -16 0 -20 -17 -20 -28 0 -36 8 -29 26 8 21 40
17 46 -6z m537 11 c0 -5 3 -17 6 -25 5 -12 2 -15 -10 -10 -17 7 -22 44 -6 44
6 0 10 -4 10 -9z m565 -11 c3 -10 1 -29 -6 -42 l-12 -22 -8 21 c-8 23 -1 63
11 63 5 0 11 -9 15 -20z m-60 -20 c3 -5 -1 -10 -9 -10 -9 0 -16 5 -16 10 0 6
4 10 9 10 6 0 13 -4 16 -10z"/>
<path d="M3405 5530 c-3 -5 -1 -10 4 -10 6 0 11 5 11 10 0 6 -2 10 -4 10 -3 0
-8 -4 -11 -10z"/>
<path d="M6325 5500 c3 -5 8 -10 11 -10 2 0 4 5 4 10 0 6 -5 10 -11 10 -5 0
-7 -4 -4 -10z"/>
<path d="M6365 5500 c-3 -5 1 -10 9 -10 9 0 16 5 16 10 0 6 -4 10 -9 10 -6 0
-13 -4 -16 -10z"/>
<path d="M11598 5493 c7 -3 16 -2 19 1 4 3 -2 6 -13 5 -11 0 -14 -3 -6 -6z"/>
<path d="M8509 5303 c-1 -4 0 -221 1 -481 2 -395 0 -471 -11 -467 -8 3 -20 -4
-27 -15 -7 -11 -8 -20 -3 -20 5 0 11 6 14 13 3 8 8 9 13 2 5 -5 6 -55 3 -110
l-5 -100 -3 90 c-1 50 -5 84 -8 77 -3 -9 -13 -6 -35 9 -23 17 -28 27 -24 45 5
17 2 24 -9 24 -9 0 -15 9 -15 22 0 17 -3 19 -12 10 -9 -9 -9 -15 0 -24 19 -19
14 -27 -10 -20 -20 5 -21 4 -10 -11 16 -19 8 -37 -16 -37 -12 0 -13 -3 -4 -12
8 -8 15 -8 25 1 8 6 22 9 31 5 21 -8 21 -40 0 -48 -22 -8 -33 3 -14 14 8 5 11
13 6 17 -5 4 -11 2 -13 -4 -7 -19 -50 -16 -62 5 -9 15 -10 15 -11 1 0 -19 57
-49 94 -49 19 0 24 -4 20 -15 -4 -10 -13 -13 -24 -10 -11 4 -23 -1 -32 -13
-20 -29 -46 -34 -53 -12 -4 11 -3 25 1 31 9 15 -16 29 -42 23 -14 -4 -23 0
-27 10 -4 9 -13 16 -22 16 -22 0 -18 -17 6 -23 16 -4 19 -10 14 -28 -5 -15 -4
-19 5 -14 11 7 50 -26 50 -42 0 -5 18 -24 40 -42 41 -34 50 -51 26 -51 -7 0
-26 16 -40 35 -15 19 -33 35 -41 35 -22 0 -8 -25 47 -82 27 -28 47 -53 44 -55
-8 -8 -55 31 -56 46 0 8 -6 11 -16 7 -12 -4 -15 -2 -10 9 3 8 2 15 -2 15 -4 0
-20 19 -37 41 -34 46 -73 74 -61 43 4 -10 1 -21 -6 -25 -7 -4 -9 -11 -5 -16 5
-4 12 -1 17 6 7 12 11 12 24 -2 19 -19 20 -33 4 -41 -7 -3 -3 -3 9 -1 23 6 40
-9 22 -20 -7 -5 3 -20 25 -41 20 -19 36 -42 35 -51 0 -14 -3 -13 -11 5 -6 12
-15 22 -20 22 -5 0 -20 11 -32 24 -13 12 -32 26 -41 30 -10 3 -15 9 -13 12 3
3 -7 19 -23 37 -16 17 -29 36 -29 42 -1 14 -50 49 -58 41 -3 -4 -1 -15 6 -24
7 -9 16 -26 21 -38 5 -12 22 -30 37 -41 41 -30 22 -45 -26 -22 -23 11 -45 17
-50 14 -6 -3 -10 1 -10 9 0 9 5 16 10 16 6 0 10 7 10 16 0 14 -3 14 -15 4 -13
-11 -21 -6 -50 24 -34 37 -45 34 -24 -5 6 -11 19 -29 30 -40 10 -10 19 -26 19
-34 0 -8 6 -15 14 -15 7 0 20 -8 27 -17 12 -15 12 -16 -3 -10 -12 4 -18 2 -18
-8 0 -8 5 -15 10 -15 6 0 10 -5 10 -11 0 -5 -4 -7 -10 -4 -19 11 -30 -5 -18
-25 16 -25 2 -38 -19 -17 -11 11 -13 20 -6 29 12 17 14 58 2 58 -5 0 -9 -7 -9
-15 0 -8 -5 -15 -11 -15 -6 0 -9 -7 -6 -15 4 -8 2 -17 -3 -20 -6 -4 -10 3 -10
14 0 14 -6 21 -20 21 -11 0 -20 6 -20 14 0 9 -14 15 -38 18 -33 3 -38 1 -34
-14 5 -21 -18 -24 -36 -6 -9 9 -12 9 -12 -3 0 -8 5 -20 11 -26 8 -8 8 -13 0
-17 -6 -4 -11 -2 -11 5 0 7 -6 5 -13 -5 -13 -17 -17 -15 -58 28 -24 26 -48 56
-53 67 -5 10 -18 19 -29 19 -19 0 -17 -4 12 -34 32 -33 35 -56 6 -56 -7 0 -15
6 -18 13 -2 6 -7 -3 -11 -20 -4 -18 -9 -33 -11 -33 -8 0 -52 46 -58 60 -3 9
-6 10 -6 3 -2 -24 -21 -13 -21 12 0 14 -4 25 -10 25 -16 0 -12 -47 5 -54 27
-10 15 -26 -20 -26 -19 0 -35 5 -35 11 0 5 4 8 9 4 5 -3 12 -1 16 5 3 5 0 10
-9 10 -8 0 -17 6 -19 13 -4 9 -6 9 -6 0 -1 -7 -9 -13 -19 -13 -13 0 -23 13
-33 43 l-14 42 -3 -37 c-2 -27 2 -44 18 -60 11 -12 23 -33 26 -45 4 -13 12
-23 20 -23 8 0 14 -9 14 -20 0 -13 7 -20 19 -20 11 0 23 -4 26 -10 3 -6 -4
-10 -17 -10 -22 0 -33 10 -58 50 -8 12 -13 13 -30 2 -12 -7 -20 -8 -20 -2 0 5
5 10 10 10 6 0 10 9 10 20 0 11 -4 20 -10 20 -5 0 -10 8 -10 18 0 13 -2 14 -9
4 -11 -18 -21 19 -19 68 1 33 1 32 8 -10 7 -42 7 -43 8 -10 1 19 -5 53 -13 75
l-14 40 -2 -75 c-2 -74 -2 -75 -9 -25 -5 28 -9 82 -9 120 l-1 71 134 129 c73
72 182 175 241 230 59 55 134 125 167 155 32 30 77 71 99 90 22 19 58 52 80
73 22 20 46 37 52 37 5 0 8 3 4 6 -3 3 8 18 26 32 59 49 137 125 137 135 0 5
-32 -20 -72 -54 -88 -78 -288 -258 -343 -308 -230 -211 -338 -312 -437 -410
l-118 -115 0 -353 0 -353 478 -477 c263 -263 532 -534 597 -602 104 -109 119
-121 128 -105 5 11 250 260 544 554 295 294 549 554 565 579 48 69 54 140 36
437 -20 325 -15 315 -211 509 -125 125 -381 370 -607 582 -148 138 -368 314
-371 296z m-85 -1154 c-8 -13 -21 -11 -27 5 -4 10 0 12 14 9 10 -3 16 -9 13
-14z m-49 0 c11 -16 1 -19 -13 -3 -7 8 -8 14 -3 14 5 0 13 -5 16 -11z m75 -39
c0 -5 -7 -10 -15 -10 -8 0 -15 5 -15 10 0 6 7 10 15 10 8 0 15 -4 15 -10z
m-42 -75 c-3 -3 -9 2 -12 12 -6 14 -5 15 5 6 7 -7 10 -15 7 -18z m-203 -14 c9
-16 -15 -24 -30 -11 -12 10 -15 8 -16 -11 0 -22 -1 -23 -8 -4 -5 11 -7 23 -4
28 6 10 51 9 58 -2z m47 -48 c13 -26 2 -45 -13 -23 -8 13 -11 13 -23 -2 -7
-10 -16 -18 -20 -18 -13 0 -5 26 14 43 11 9 20 25 21 34 0 14 2 15 6 3 2 -8 9
-25 15 -37z m-320 5 c-15 -15 -24 -6 -16 16 5 12 10 14 17 7 8 -8 8 -14 -1
-23z m565 -10 c-3 -7 -5 -2 -5 12 0 14 2 19 5 13 2 -7 2 -19 0 -25z m-789 0
c9 -9 12 -9 12 0 0 19 25 14 45 -8 14 -16 15 -20 4 -20 -8 0 -20 5 -27 12 -9
9 -15 9 -23 1 -14 -14 -39 -6 -39 13 0 17 12 18 28 2z m706 -3 c3 -8 2 -15 -3
-15 -5 0 -14 7 -21 15 -10 12 -10 15 3 15 8 0 17 -7 21 -15z m-778 -62 c-7
-16 -8 -16 -16 -2 -6 11 -19 15 -37 13 -27 -4 -27 -3 -3 4 18 6 21 10 11 16
-10 7 -11 10 -1 16 19 12 54 -25 46 -47z m239 30 c-11 -7 -26 -13 -34 -12 -14
0 -14 1 -1 6 8 3 19 12 23 20 5 7 13 10 19 7 7 -5 5 -12 -7 -21z m255 17 c0
-5 -4 -10 -10 -10 -5 0 -10 5 -10 10 0 6 5 10 10 10 6 0 10 -4 10 -10z m-572
-11 c-2 -6 -8 -10 -13 -10 -5 0 -11 4 -13 10 -2 6 4 11 13 11 9 0 15 -5 13
-11z m166 -11 c20 4 20 3 5 -13 -14 -14 -19 -15 -38 -3 -25 15 -29 33 -5 20 9
-5 26 -7 38 -4z m285 -10 c-10 -6 -7 -7 9 -3 16 5 22 2 22 -9 0 -8 9 -18 20
-21 11 -3 20 -12 20 -20 0 -8 9 -17 20 -20 11 -4 18 -11 15 -16 -8 -11 -75 32
-75 49 0 15 -16 16 -26 0 -5 -7 -10 -4 -15 10 -10 26 -1 55 13 46 6 -4 5 -10
-3 -16z m431 12 c0 -5 -4 -10 -10 -10 -5 0 -10 5 -10 10 0 6 5 10 10 10 6 0
10 -4 10 -10z m-1013 -32 c-3 -8 -6 -5 -6 6 -1 11 2 17 5 13 3 -3 4 -12 1 -19z
m683 7 c10 -13 9 -15 -9 -15 -12 0 -21 6 -21 15 0 8 4 15 9 15 5 0 14 -7 21
-15z m127 0 c9 -24 -1 -27 -15 -5 -8 13 -8 20 -2 20 6 0 13 -7 17 -15z m-317
-15 c0 -5 -6 -10 -14 -10 -8 0 -18 5 -21 10 -3 6 3 10 14 10 12 0 21 -4 21
-10z m577 -37 c-3 -10 -5 -2 -5 17 0 19 2 27 5 18 2 -10 2 -26 0 -35z m-817
21 c0 -8 -5 -12 -10 -9 -6 4 -8 11 -5 16 9 14 15 11 15 -7z m80 6 c0 -5 -4
-10 -10 -10 -5 0 -10 5 -10 10 0 6 5 10 10 10 6 0 10 -4 10 -10z m430 0 c0 -5
-4 -10 -10 -10 -5 0 -10 5 -10 10 0 6 5 10 10 10 6 0 10 -4 10 -10z m-30 -16
c0 -14 -3 -14 -15 -4 -8 7 -15 14 -15 16 0 2 7 4 15 4 8 0 15 -7 15 -16z
m-515 -14 c3 -5 -1 -10 -9 -10 -9 0 -16 5 -16 10 0 6 4 10 9 10 6 0 13 -4 16
-10z m282 -12 c-3 -8 -6 -5 -6 6 -1 11 2 17 5 13 3 -3 4 -12 1 -19z m-418 -4
c3 -3 0 -9 -5 -14 -6 -6 -16 -2 -28 11 -17 20 -17 21 6 14 13 -4 25 -9 27 -11z
m224 -11 c14 -16 34 -35 44 -43 16 -14 16 -15 0 -18 -10 -2 -28 10 -44 28 -15
18 -33 38 -41 46 -11 12 -11 14 1 14 7 0 25 -12 40 -27z m254 21 c-3 -3 -12
-4 -19 -1 -8 3 -5 6 6 6 11 1 17 -2 13 -5z m-378 -49 c0 -5 -4 -3 -9 5 -5 8
-9 22 -9 30 0 16 17 -16 18 -35z m207 18 c-10 -10 -19 5 -10 18 6 11 8 11 12
0 2 -7 1 -15 -2 -18z m64 6 c0 -14 -16 -11 -29 5 -10 12 -8 13 8 9 12 -3 21
-9 21 -14z m550 11 c0 -5 -2 -10 -4 -10 -3 0 -8 5 -11 10 -3 6 -1 10 4 10 6 0
11 -4 11 -10z m-58 -30 c16 -16 24 -30 18 -30 -6 0 -25 14 -42 30 -16 17 -24
30 -18 30 6 0 25 -13 42 -30z m-232 10 c0 -5 -2 -10 -4 -10 -2 0 -12 -3 -22
-7 -16 -6 -17 -5 -4 10 17 19 30 22 30 7z m-456 -16 c3 -8 2 -12 -4 -9 -6 3
-10 10 -10 16 0 14 7 11 14 -7z m-167 -26 c-3 -7 -5 -2 -5 12 0 14 2 19 5 13
2 -7 2 -19 0 -25z m333 22 c0 -5 -4 -10 -10 -10 -5 0 -10 5 -10 10 0 6 5 10
10 10 6 0 10 -4 10 -10z m350 -16 c0 -8 5 -14 10 -14 6 0 10 -5 10 -10 0 -6
-8 -5 -20 2 -11 7 -20 21 -20 31 0 10 5 15 10 12 6 -3 10 -13 10 -21z m-315
-13 c10 -17 -12 -21 -25 -6 -10 12 -10 15 3 15 9 0 18 -4 22 -9z m275 -13 c0
-6 -6 -5 -15 2 -8 7 -15 14 -15 16 0 2 7 1 15 -2 8 -4 15 -11 15 -16z m258 -6
c6 -18 -15 -14 -22 4 -4 10 -1 14 6 12 6 -2 14 -10 16 -16z m-595 -12 c3 -11
1 -20 -4 -20 -4 0 -13 9 -19 20 -8 16 -8 20 3 20 8 0 17 -9 20 -20z m-136 -42
c-3 -8 -6 -5 -6 6 -1 11 2 17 5 13 3 -3 4 -12 1 -19z m268 -126 c-3 -3 -11 0
-18 7 -9 10 -8 11 6 5 10 -3 15 -9 12 -12z"/>
<path d="M8356 5165 c-11 -8 -17 -17 -14 -20 2 -3 13 4 23 15 21 23 18 25 -9
5z"/>
<path d="M4591 5084 c0 -11 3 -14 6 -6 3 7 2 16 -1 19 -3 4 -6 -2 -5 -13z"/>
<path d="M10832 4825 l3 -105 343 0 342 0 0 83 c0 45 3 92 6 105 l6 22 -351 0
-352 0 3 -105z"/>
<path d="M8146 4835 c4 -8 8 -15 10 -15 2 0 4 7 4 15 0 8 -4 15 -10 15 -5 0
-7 -7 -4 -15z"/>
<path d="M7960 4689 c0 -5 5 -7 10 -4 6 3 10 8 10 11 0 2 -4 4 -10 4 -5 0 -10
-5 -10 -11z"/>
<path d="M5758 4552 l-78 -3 0 -739 c0 -407 -1 -743 -2 -747 -2 -5 36 -9 85
-11 l87 -3 0 743 c0 409 -4 748 -8 753 -4 6 -41 9 -84 7z"/>
<path d="M9460 4495 c19 -19 36 -35 39 -35 3 0 -10 16 -29 35 -19 19 -36 35
-39 35 -3 0 10 -16 29 -35z"/>
<path d="M10873 4523 l-33 -4 0 -72 c0 -40 3 -82 6 -94 l6 -23 339 0 339 0 0
100 0 100 -312 -2 c-172 0 -328 -3 -345 -5z"/>
<path d="M2728 4503 c-21 -5 -23 -19 -5 -29 6 -4 9 -4 5 1 -4 4 0 14 10 21 18
14 17 14 -10 7z"/>
<path d="M3300 4500 c0 -5 5 -10 11 -10 5 0 7 5 4 10 -3 6 -8 10 -11 10 -2 0
-4 -4 -4 -10z"/>
<path d="M8116 4494 c-5 -14 -4 -15 9 -4 17 14 19 20 6 20 -5 0 -12 -7 -15
-16z"/>
<path d="M8330 4500 c-8 -5 -12 -12 -9 -15 4 -3 12 1 19 10 14 17 11 19 -10 5z"/>
<path d="M8367 4468 c-8 -28 -6 -29 17 -13 10 8 15 18 11 24 -10 17 -22 13
-28 -11z"/>
<path d="M12325 4469 c-36 -39 -137 -99 -167 -99 -29 0 -91 27 -140 61 -31 23
-42 24 -35 4 5 -11 0 -13 -23 -8 -17 3 -30 1 -30 -4 0 -4 31 -40 70 -78 l69
-69 -5 -98 c-3 -54 -2 -98 1 -98 3 0 27 16 54 35 26 19 58 35 70 35 14 0 46
-23 83 -61 60 -60 61 -60 54 -27 -4 18 -10 57 -13 86 -3 29 -10 55 -14 58 -15
9 -10 20 46 99 31 43 53 80 50 84 -4 3 -20 -2 -36 -12 l-30 -17 20 29 c15 21
19 37 14 65 -7 41 -13 44 -38 15z"/>
<path d="M8230 4449 c0 -5 5 -7 10 -4 6 3 10 8 10 11 0 2 -4 4 -10 4 -5 0 -10
-5 -10 -11z"/>
<path d="M9510 4446 c0 -2 8 -10 18 -17 15 -13 16 -12 3 4 -13 16 -21 21 -21
13z"/>
<path d="M8336 4421 c-5 -7 -18 -17 -30 -22 -17 -8 -16 -8 9 -3 36 7 38 9 33
25 -4 11 -6 11 -12 0z"/>
<path d="M8434 4404 c3 -9 6 -18 6 -20 0 -9 39 -4 45 6 3 6 -3 10 -14 10 -12
0 -21 5 -21 10 0 6 -5 10 -11 10 -6 0 -8 -7 -5 -16z"/>
<path d="M8030 4400 c-8 -5 -10 -10 -5 -10 6 0 17 5 25 10 8 5 11 10 5 10 -5
0 -17 -5 -25 -10z"/>
<path d="M8235 4399 c-11 -17 1 -21 15 -4 8 9 8 15 2 15 -6 0 -14 -5 -17 -11z"/>
<path d="M7932 4384 c-7 -8 -8 -14 -3 -14 10 0 25 19 20 25 -2 1 -10 -3 -17
-11z"/>
<path d="M5390 3720 l0 -670 85 0 85 0 0 633 c0 347 -3 649 -6 670 l-7 37 -78
0 -79 0 0 -670z"/>
<path d="M7972 4344 c-18 -19 -29 -34 -24 -34 10 0 40 26 61 53 24 30 -3 17
-37 -19z"/>
<path d="M8185 4360 c-3 -5 1 -10 9 -10 8 0 18 5 21 10 3 6 -1 10 -9 10 -8 0
-18 -4 -21 -10z"/>
<path d="M8255 4340 c3 -5 8 -10 11 -10 2 0 4 5 4 10 0 6 -5 10 -11 10 -5 0
-7 -4 -4 -10z"/>
<path d="M6260 3698 l0 -638 85 0 85 0 0 594 c0 326 -3 614 -6 640 l-7 47 -78
-3 -79 -3 0 -637z"/>
<path d="M8216 4316 c10 -8 21 -12 24 -10 5 6 -21 24 -34 24 -6 0 -1 -6 10
-14z"/>
<path d="M7756 4293 c-6 -14 -5 -15 5 -6 7 7 10 15 7 18 -3 3 -9 -2 -12 -12z"/>
<path d="M8186 4303 c-11 -11 -6 -23 9 -23 8 0 15 4 15 9 0 13 -16 22 -24 14z"/>
<path d="M7915 4287 c-4 -10 -5 -21 -1 -24 10 -10 18 4 13 24 -4 17 -4 17 -12
0z"/>
<path d="M8161 4254 c0 -11 3 -14 6 -6 3 7 2 16 -1 19 -3 4 -6 -2 -5 -13z"/>
<path d="M8117 4254 c-3 -3 1 -13 9 -21 8 -9 18 -12 21 -9 4 4 0 13 -8 21 -8
9 -18 13 -22 9z"/>
<path d="M7670 4211 c0 -6 5 -13 10 -16 6 -3 10 1 10 9 0 9 -4 16 -10 16 -5 0
-10 -4 -10 -9z"/>
<path d="M8060 4211 c0 -6 5 -13 10 -16 6 -3 10 1 10 9 0 9 -4 16 -10 16 -5 0
-10 -4 -10 -9z"/>
<path d="M8160 4201 c0 -12 5 -21 10 -21 6 0 10 6 10 14 0 8 -4 18 -10 21 -5
3 -10 -3 -10 -14z"/>
<path d="M5090 3630 l0 -581 83 3 82 3 3 578 2 577 -85 0 -85 0 0 -580z"/>
<path d="M7765 4200 c-3 -5 -2 -10 4 -10 5 0 13 5 16 10 3 6 2 10 -4 10 -5 0
-13 -4 -16 -10z"/>
<path d="M7830 4191 c0 -13 29 -35 37 -27 3 3 1 6 -5 6 -7 0 -12 7 -12 15 0 8
-4 15 -10 15 -5 0 -10 -4 -10 -9z"/>
<path d="M7905 4170 c-3 -5 1 -10 9 -10 9 0 16 5 16 10 0 6 -4 10 -9 10 -6 0
-13 -4 -16 -10z"/>
<path d="M7520 4160 c0 -5 7 -7 15 -4 8 4 15 8 15 10 0 2 -7 4 -15 4 -8 0 -15
-4 -15 -10z"/>
<path d="M7690 4160 c-9 -6 -10 -10 -3 -10 6 0 15 5 18 10 8 12 4 12 -15 0z"/>
<path d="M7810 4146 c0 -8 7 -16 15 -20 9 -3 15 0 15 8 0 8 -7 16 -15 20 -9 3
-15 0 -15 -8z"/>
<path d="M7630 4120 c0 -5 5 -10 11 -10 5 0 7 5 4 10 -3 6 -8 10 -11 10 -2 0
-4 -4 -4 -10z"/>
<path d="M7865 4120 c-3 -6 1 -13 10 -16 19 -8 30 0 20 15 -8 14 -22 14 -30 1z"/>
<path d="M7785 4110 c-3 -5 -1 -10 4 -10 6 0 11 5 11 10 0 6 -2 10 -4 10 -3 0
-8 -4 -11 -10z"/>
<path d="M7941 4091 c-26 -36 -26 -41 -1 -41 13 0 20 7 20 19 0 11 5 23 10 26
6 3 10 10 10 16 0 18 -19 9 -39 -20z"/>
<path d="M7990 4090 c0 -5 5 -10 11 -10 5 0 7 5 4 10 -3 6 -8 10 -11 10 -2 0
-4 -4 -4 -10z"/>
<path d="M7817 4084 c-8 -8 1 -24 14 -24 5 0 9 7 9 15 0 15 -12 20 -23 9z"/>
<path d="M5977 4064 c-4 -4 -7 -234 -7 -511 l0 -503 86 0 85 0 -3 508 -3 507
-75 3 c-42 1 -79 0 -83 -4z"/>
<path d="M8010 4060 c0 -5 5 -10 10 -10 6 0 10 5 10 10 0 6 -4 10 -10 10 -5 0
-10 -4 -10 -10z"/>
<path d="M7638 4015 c4 -34 15 -45 27 -25 9 14 -6 60 -19 60 -8 0 -11 -12 -8
-35z"/>
<path d="M7980 4040 c0 -5 5 -10 10 -10 6 0 10 -8 10 -17 0 -13 3 -14 11 -6 9
9 8 16 -4 27 -18 18 -27 20 -27 6z"/>
<path d="M7795 4030 c3 -5 10 -10 16 -10 5 0 9 5 9 10 0 6 -7 10 -16 10 -8 0
-12 -4 -9 -10z"/>
<path d="M3055 3859 c26 -10 85 -11 85 -1 0 4 -24 7 -53 8 -34 1 -45 -1 -32
-7z"/>
<path d="M3426 3834 c-4 -15 -5 -29 -2 -31 3 -3 8 6 11 20 5 20 15 27 38 30
31 4 31 4 -4 5 -32 2 -38 -2 -43 -24z"/>
<path d="M3928 3853 c23 -2 59 -2 80 0 20 2 1 4 -43 4 -44 0 -61 -2 -37 -4z"/>
<path d="M4051 3843 c-1 -21 -6 -23 -65 -23 -36 0 -67 -4 -70 -8 -3 -5 0 -9 7
-9 7 0 42 -3 80 -7 71 -6 73 -5 57 44 -8 24 -8 24 -9 3z"/>
<path d="M3693 3813 c9 -2 23 -2 30 0 6 3 -1 5 -18 5 -16 0 -22 -2 -12 -5z"/>
<path d="M3778 3813 c12 -2 30 -2 40 0 9 3 -1 5 -23 4 -22 0 -30 -2 -17 -4z"/>
<path d="M11118 3633 c7 -3 16 -2 19 1 4 3 -2 6 -13 5 -11 0 -14 -3 -6 -6z"/>
<path d="M10830 3600 c0 -11 5 -20 10 -20 6 0 10 9 10 20 0 11 -4 20 -10 20
-5 0 -10 -9 -10 -20z"/>
<path d="M10892 3595 c0 -16 2 -22 5 -12 2 9 2 23 0 30 -3 6 -5 -1 -5 -18z"/>
<path d="M11757 3607 c-11 -29 -9 -43 4 -30 6 6 9 19 7 29 -3 18 -4 18 -11 1z"/>
<path d="M12501 3584 c0 -11 3 -14 6 -6 3 7 2 16 -1 19 -3 4 -6 -2 -5 -13z"/>
<path d="M2875 3316 c-35 -15 -61 -43 -50 -54 4 -4 10 -1 12 6 14 37 150 59
205 32 l23 -11 -24 20 c-28 25 -117 28 -166 7z"/>
<path d="M3040 3235 c0 -5 5 -17 10 -25 5 -8 10 -10 10 -5 0 6 -5 17 -10 25
-5 8 -10 11 -10 5z"/>
<path d="M2843 3195 c-3 -9 -3 -19 1 -22 3 -4 6 1 6 10 0 25 17 21 24 -5 11
-43 8 -48 -21 -32 -37 18 -42 18 -36 -6 6 -24 39 -46 83 -54 28 -5 31 -5 17 4
-9 6 -26 13 -37 15 -11 2 -28 9 -37 15 -15 9 -14 10 7 3 38 -11 194 -7 198 6
2 6 10 11 18 11 8 0 14 7 14 16 0 8 5 12 10 9 6 -4 10 5 10 19 0 24 -2 25 -27
14 -16 -7 -36 -20 -46 -30 -34 -34 -140 -18 -150 23 -6 23 -25 25 -34 4z"/>
<path d="M2920 3200 c-11 -8 3 -9 48 -6 35 2 66 6 69 10 11 10 -101 6 -117 -4z"/>
<path d="M3091 3143 c0 -6 -4 -20 -7 -30 -5 -14 -4 -15 5 -7 7 7 11 20 8 30
-3 11 -5 14 -6 7z"/>
<path d="M11040 2777 c0 -5 45 -7 101 -6 107 3 125 -4 113 -45 -4 -12 -2 -16
5 -12 6 4 11 23 11 43 l0 35 -115 -4 c-63 -1 -115 -7 -115 -11z"/>
<path d="M10858 2773 c7 -3 16 -2 19 1 4 3 -2 6 -13 5 -11 0 -14 -3 -6 -6z"/>
<path d="M11421 2758 c0 -16 2 -18 6 -8 3 8 11 18 17 22 7 5 4 8 -6 8 -12 0
-18 -7 -17 -22z"/>
</g>
</svg>
